<?xml version='1.0' encoding='utf-8'?>
<svg xmlns="http://www.w3.org/2000/svg" width="1920" height="1080" viewBox="0 0 1920 1080" data-theme="dark">
  <style>
        @font-face {
            font-family: 'Inter';
            src: url('assets/fonts/Inter-Regular.ttf') format('truetype');
            font-weight: 400;
            font-style: normal;
            font-display: swap;
        }
        @font-face {
            font-family: 'Inter';
            src: url('assets/fonts/Inter-Bold.ttf') format('truetype');
            font-weight: 600;
            font-style: normal;
            font-display: swap;
        }
        @font-face {
            font-family: 'Inter';
            src: url('assets/fonts/Inter-Bold.ttf') format('truetype');
            font-weight: 800;
            font-style: normal;
            font-display: swap;
        }
        
:root {
    --background: #0f172a;
    --panel: #1e293b;
    --primary-text: #f1f5f9;
    --muted-text: #94a3b8;
    --inverse-text: #0f172a;
    --border: #334155;
    --shadow-color: #000000;
    --icon-pad-bg: #1e293b;
    --art-glow: #7dd3fc;
    --art-glow-opacity: 0.18;
    --art-sheen: #ffffff;
    --art-sheen-opacity: 0.18;
    --art-shadow: #000000;
    --art-shadow-opacity: 0.28;
    --art-muted-line: #64748b;
    --art-panel-tint: #1e293b;
    --font-family: 'Inter', 'Segoe UI', 'Kalam', Roboto, Helvetica, Arial, sans-serif;
    --radius-xl: 16px;
    --font-family-headline: 'Inter', 'Segoe UI', 'Kalam', Roboto, Helvetica, Arial, sans-serif;
    --font-family-body: 'Inter', 'Segoe UI', 'Kalam', Roboto, Helvetica, Arial, sans-serif;
    --font-heading: 'Inter', 'Segoe UI', 'Kalam', Roboto, Helvetica, Arial, sans-serif;
    --font-body: 'Inter', 'Segoe UI', 'Kalam', Roboto, Helvetica, Arial, sans-serif;
    --font-size-h1: 56px;
    --font-size-h2: 40px;
    --font-size-h3: 28px;
    --font-size-body: 24px;
    --font-size-caption: 18px;
    --secondary-text: var(--muted-text);
    --panel-border: var(--border);
    --font-weight-normal: 400;
    --font-weight-medium: 500;
    --font-weight-semibold: 600;
    --font-weight-bold: 700;
    --spacing-gutter-pct: 0.07;
    --spacing-top-pct: 0.15;
    --spacing-bottom-pct: 0.07;
    --spacing-title-y-pct: 0.055;
    --accent-1: #a5b4fc;
    --accent-2: #34d399;
    --accent-3: #f472b6;
    --accent-4: #fbbf24;
    --accent-5: #38bdf8;
    --accent-6: #c084fc;
    --accent-7: #f87171;
    --accent-8: #2dd4bf;
    --accent-9: #fb923c;
    --accent-10: #e879f9;
}
:root[data-theme="dark"] {
    --background: #0f172a;
    --panel: #1e293b;
    --primary-text: #f1f5f9;
    --muted-text: #94a3b8;
    --inverse-text: #0f172a;
    --border: #334155;
    --shadow-color: #000000;
    --icon-pad-bg: #1e293b;
    --art-glow: #7dd3fc;
    --art-glow-opacity: 0.18;
    --art-sheen: #ffffff;
    --art-sheen-opacity: 0.18;
    --art-shadow: #000000;
    --art-shadow-opacity: 0.28;
    --art-muted-line: #64748b;
    --art-panel-tint: #1e293b;
    --accent-1: #a5b4fc;
    --accent-2: #34d399;
    --accent-3: #f472b6;
    --accent-4: #fbbf24;
    --accent-5: #38bdf8;
    --accent-6: #c084fc;
    --accent-7: #f87171;
    --accent-8: #2dd4bf;
    --accent-9: #fb923c;
    --accent-10: #e879f9;
}
:root[data-theme="light"] {
    --background: #f8fafc;
    --panel: #ffffff;
    --primary-text: #0f172a;
    --muted-text: #64748b;
    --inverse-text: #ffffff;
    --border: #e2e8f0;
    --shadow-color: #000000;
    --icon-pad-bg: #1e293b;
    --art-glow: #0891b2;
    --art-glow-opacity: 0.10;
    --art-sheen: #ffffff;
    --art-sheen-opacity: 0.34;
    --art-shadow: #0f172a;
    --art-shadow-opacity: 0.14;
    --art-muted-line: #94a3b8;
    --art-panel-tint: #f1f5f9;
    --accent-1: #4f46e5;
    --accent-2: #059669;
    --accent-3: #db2777;
    --accent-4: #d97706;
    --accent-5: #0284c7;
    --accent-6: #7c3aed;
    --accent-7: #dc2626;
    --accent-8: #0d9488;
    --accent-9: #ea580c;
    --accent-10: #c026d3;
}</style>
  <rect x="0" y="0" width="1.92E+3" height="1.08E+3" fill="#252a34" stroke="none" id="programmatic_background"/>
  <line id="HEADER_DECOR" x1="960.0" x2="1080.0" y1="111.0" y2="111.0" stroke="var(--accent-1)" stroke-width="6" stroke-linecap="round"/>
  <defs>
    <pattern id="svg2cc26078-napkin-hatch" patternUnits="userSpaceOnUse" width="12" height="12">
      <path d="M -3 12 L 12 -3 M 0 15 L 15 0" fill="none" stroke="var(--primary-text)" stroke-width="1" stroke-opacity="0.045"/>
    </pattern>
    <filter id="svg2cc26078-shadow" x="-30%" y="-30%" width="160%" height="180%">
      <feDropShadow dx="0" dy="4" stdDeviation="8" flood-color="#000000" flood-opacity="0.14"/>
      <feDropShadow dx="0" dy="12" stdDeviation="18" flood-color="#000000" flood-opacity="0.12"/>
    </filter>
    <linearGradient id="svg2cc26078-routeGlow" x1="0%" y1="0%" x2="100%" y2="0%">
      <stop offset="0%" stop-color="var(--accent-1)" stop-opacity="0.42"/>
      <stop offset="100%" stop-color="var(--accent-6)" stop-opacity="0.18"/>
    </linearGradient>
    <radialGradient id="svg2cc26078-universal-edge-vignette" cx="50%" cy="50%" r="72%">
      <stop offset="0%" stop-color="var(--background)" stop-opacity="0"/>
      <stop offset="72%" stop-color="var(--background)" stop-opacity="0.12"/>
      <stop offset="100%" stop-color="var(--primary-text)" stop-opacity="0.08"/>
    </radialGradient>
    <linearGradient id="svg2cc26078-universal-surface-sheen" x1="0%" y1="0%" x2="100%" y2="100%">
      <stop offset="0%" stop-color="var(--art-sheen)" stop-opacity="var(--art-sheen-opacity)"/>
      <stop offset="46%" stop-color="var(--art-sheen)" stop-opacity="0.035"/>
      <stop offset="100%" stop-color="var(--art-panel-tint)" stop-opacity="0.14"/>
    </linearGradient>
    <radialGradient id="svg2cc26078-universal-icon-aura" cx="50%" cy="42%" r="64%">
      <stop offset="0%" stop-color="var(--art-glow)" stop-opacity="var(--art-glow-opacity)"/>
      <stop offset="100%" stop-color="var(--background)" stop-opacity="0"/>
    </radialGradient>
    <linearGradient id="svg2cc26078-train-metal-sheen" x1="0%" y1="0%" x2="0%" y2="100%">
      <stop offset="0%" stop-color="var(--inverse-text)" stop-opacity="0.24"/>
      <stop offset="46%" stop-color="var(--inverse-text)" stop-opacity="0.06"/>
      <stop offset="100%" stop-color="var(--background)" stop-opacity="0.18"/>
    </linearGradient>
    <linearGradient id="svg2cc26078-train-window-glass" x1="0%" y1="0%" x2="100%" y2="100%">
      <stop offset="0%" stop-color="var(--inverse-text)" stop-opacity="0.92"/>
      <stop offset="100%" stop-color="var(--accent-2)" stop-opacity="0.24"/>
    </linearGradient>
    <filter id="svg2cc26078-text-glow" x="-20%" y="-20%" width="140%" height="140%">
      <feDropShadow dx="0" dy="0" stdDeviation="2" flood-color="#000000" flood-opacity="0.4"/>
    </filter>
    <marker id="svg2cc26078-arrowhead" markerWidth="10" markerHeight="7" refX="9" refY="3.5" orient="auto" markerUnits="strokeWidth">
      <polygon points="0 0, 10 3.5, 0 7" fill="var(--muted-text)" opacity="0.6"/>
    </marker>
  </defs>
  <rect width="100%" height="100%" fill="var(--background)" id="CANVAS_BG"/>
  <rect width="100%" height="100%" fill="url(#svg2cc26078-napkin-hatch)"/>
  <rect id="UNIVERSAL_EDGE_VIGNETTE" width="100%" height="100%" fill="url(#svg2cc26078-universal-edge-vignette)" opacity="0.62"/>
  <circle cx="250" cy="220" r="170" fill="var(--accent-1)" opacity="0.05"/>
  <circle cx="1680" cy="230" r="210" fill="var(--accent-5)" opacity="0.04"/>
  <text id="TITLE" x="960.0" y="59" text-anchor="middle" font-weight="700" font-size="54" fill="#f1f5f9" style="font-size: 60px; font-family: Inter, Segoe UI, Kalam, Roboto, Helvetica, Arial, sans-serif; font-weight: 700; letter-spacing:-1.2px;" data-final-font-size="60">
    <tspan x="960.0" dy="68.00px">Heyerdahl's Migration Theory Construction</tspan>
  </text>
  <rect id="TITLE_FRAME" x="160" y="36" width="1600" height="86" fill="none"/>
  <path d="M 340 138 L 1580 138" stroke="var(--muted-text)" stroke-width="2" opacity="0.34"/>
  <g opacity="0.36">
    <line x1="140" y1="434" x2="158" y2="476" stroke="var(--muted-text)" stroke-width="10" stroke-linecap="round" opacity="0.22"/>
    <line x1="232" y1="434" x2="250" y2="476" stroke="var(--muted-text)" stroke-width="10" stroke-linecap="round" opacity="0.22"/>
    <line x1="324" y1="434" x2="342" y2="476" stroke="var(--muted-text)" stroke-width="10" stroke-linecap="round" opacity="0.22"/>
    <line x1="416" y1="434" x2="434" y2="476" stroke="var(--muted-text)" stroke-width="10" stroke-linecap="round" opacity="0.22"/>
    <line x1="508" y1="434" x2="526" y2="476" stroke="var(--muted-text)" stroke-width="10" stroke-linecap="round" opacity="0.22"/>
    <line x1="600" y1="434" x2="618" y2="476" stroke="var(--muted-text)" stroke-width="10" stroke-linecap="round" opacity="0.22"/>
    <line x1="692" y1="434" x2="710" y2="476" stroke="var(--muted-text)" stroke-width="10" stroke-linecap="round" opacity="0.22"/>
    <line x1="784" y1="434" x2="802" y2="476" stroke="var(--muted-text)" stroke-width="10" stroke-linecap="round" opacity="0.22"/>
    <line x1="876" y1="434" x2="894" y2="476" stroke="var(--muted-text)" stroke-width="10" stroke-linecap="round" opacity="0.22"/>
    <line x1="968" y1="434" x2="986" y2="476" stroke="var(--muted-text)" stroke-width="10" stroke-linecap="round" opacity="0.22"/>
    <line x1="1060" y1="434" x2="1078" y2="476" stroke="var(--muted-text)" stroke-width="10" stroke-linecap="round" opacity="0.22"/>
    <line x1="1152" y1="434" x2="1170" y2="476" stroke="var(--muted-text)" stroke-width="10" stroke-linecap="round" opacity="0.22"/>
    <line x1="1244" y1="434" x2="1262" y2="476" stroke="var(--muted-text)" stroke-width="10" stroke-linecap="round" opacity="0.22"/>
    <line x1="1336" y1="434" x2="1354" y2="476" stroke="var(--muted-text)" stroke-width="10" stroke-linecap="round" opacity="0.22"/>
    <line x1="1428" y1="434" x2="1446" y2="476" stroke="var(--muted-text)" stroke-width="10" stroke-linecap="round" opacity="0.22"/>
    <line x1="1520" y1="434" x2="1538" y2="476" stroke="var(--muted-text)" stroke-width="10" stroke-linecap="round" opacity="0.22"/>
    <line x1="1612" y1="434" x2="1630" y2="476" stroke="var(--muted-text)" stroke-width="10" stroke-linecap="round" opacity="0.22"/>
    <line x1="1704" y1="434" x2="1722" y2="476" stroke="var(--muted-text)" stroke-width="10" stroke-linecap="round" opacity="0.22"/>
    <line x1="1796" y1="434" x2="1814" y2="476" stroke="var(--muted-text)" stroke-width="10" stroke-linecap="round" opacity="0.22"/>
  </g>
  <path d="M 120 442 C 520 430 1400 430 1800 442" stroke="var(--muted-text)" stroke-width="18" stroke-linecap="round" opacity="0.28" fill="none"/>
  <path d="M 126 430 C 520 418 1400 418 1794 430" stroke="var(--primary-text)" stroke-width="2" stroke-linecap="round" opacity="0.18" fill="none"/>
  <path d="M 126 430 C 520 418 1400 418 1794 430" stroke="var(--primary-text)" stroke-width="2" stroke-linecap="round" opacity="0.18" fill="none"/>
  <path d="M 126 430 C 520 418 1400 418 1794 430" stroke="var(--primary-text)" stroke-width="2" stroke-linecap="round" opacity="0.18" fill="none"/>
  <path d="M 126 430 C 520 418 1400 418 1794 430" stroke="var(--primary-text)" stroke-width="2" stroke-linecap="round" opacity="0.18" fill="none"/>
  <path d="M 126 430 C 520 418 1400 418 1794 430" stroke="var(--primary-text)" stroke-width="2" stroke-linecap="round" opacity="0.18" fill="none"/>
  <path d="M 126 430 C 520 418 1400 418 1794 430" stroke="var(--primary-text)" stroke-width="2" stroke-linecap="round" opacity="0.18" fill="none"/>
  <path d="M 126 430 C 520 418 1400 418 1794 430" stroke="var(--primary-text)" stroke-width="2" stroke-linecap="round" opacity="0.18" fill="none"/>
  <path d="M 126 430 C 520 418 1400 418 1794 430" stroke="var(--primary-text)" stroke-width="2" stroke-linecap="round" opacity="0.18" fill="none"/>
  <path d="M 126 430 C 520 418 1400 418 1794 430" stroke="var(--primary-text)" stroke-width="2" stroke-linecap="round" opacity="0.18" fill="none"/>
  <path d="M 126 430 C 520 418 1400 418 1794 430" stroke="var(--primary-text)" stroke-width="2" stroke-linecap="round" opacity="0.18" fill="none"/>
  <path d="M 126 430 C 520 418 1400 418 1794 430" stroke="var(--primary-text)" stroke-width="2" stroke-linecap="round" opacity="0.18" fill="none"/>
  <path d="M 126 430 C 520 418 1400 418 1794 430" stroke="var(--primary-text)" stroke-width="2" stroke-linecap="round" opacity="0.18" fill="none"/>
  <path d="M 126 430 C 520 418 1400 418 1794 430" stroke="var(--primary-text)" stroke-width="2" stroke-linecap="round" opacity="0.18" fill="none"/>
  <path d="M 126 430 C 520 418 1400 418 1794 430" stroke="var(--primary-text)" stroke-width="2" stroke-linecap="round" opacity="0.18" fill="none"/>
  <path d="M 126 430 C 520 418 1400 418 1794 430" stroke="var(--primary-text)" stroke-width="2" stroke-linecap="round" opacity="0.18" fill="none"/>
  <path d="M 126 430 C 520 418 1400 418 1794 430" stroke="var(--primary-text)" stroke-width="2" stroke-linecap="round" opacity="0.18" fill="none"/>
  <path d="M 126 430 C 520 418 1400 418 1794 430" stroke="var(--primary-text)" stroke-width="2" stroke-linecap="round" opacity="0.18" fill="none"/>
  <path d="M 126 430 C 520 418 1400 418 1794 430" stroke="var(--primary-text)" stroke-width="2" stroke-linecap="round" opacity="0.18" fill="none"/>
  <path d="M 126 430 C 520 418 1400 418 1794 430" stroke="var(--primary-text)" stroke-width="2" stroke-linecap="round" opacity="0.18" fill="none"/>
  <path d="M 126 430 C 520 418 1400 418 1794 430" stroke="var(--primary-text)" stroke-width="2" stroke-linecap="round" opacity="0.18" fill="none"/>
  <path d="M 126 430 C 520 418 1400 418 1794 430" stroke="var(--primary-text)" stroke-width="2" stroke-linecap="round" opacity="0.18" fill="none"/>
  <path d="M 126 430 C 520 418 1400 418 1794 430" stroke="var(--primary-text)" stroke-width="2" stroke-linecap="round" opacity="0.18" fill="none"/>
  <path d="M 126 430 C 520 418 1400 418 1794 430" stroke="var(--primary-text)" stroke-width="2" stroke-linecap="round" opacity="0.18" fill="none"/>
  <path d="M 126 430 C 520 418 1400 418 1794 430" stroke="var(--primary-text)" stroke-width="2" stroke-linecap="round" opacity="0.18" fill="none"/>
  <path d="M 126 430 C 520 418 1400 418 1794 430" stroke="var(--primary-text)" stroke-width="2" stroke-linecap="round" opacity="0.18" fill="none"/>
  <path d="M 126 430 C 520 418 1400 418 1794 430" stroke="var(--primary-text)" stroke-width="2" stroke-linecap="round" opacity="0.18" fill="none"/>
  <path d="M 126 430 C 520 418 1400 418 1794 430" stroke="var(--primary-text)" stroke-width="2" stroke-linecap="round" opacity="0.18" fill="none"/>
  <path d="M 126 430 C 520 418 1400 418 1794 430" stroke="var(--primary-text)" stroke-width="2" stroke-linecap="round" opacity="0.18" fill="none"/>
  <path d="M 126 430 C 520 418 1400 418 1794 430" stroke="var(--primary-text)" stroke-width="2" stroke-linecap="round" opacity="0.18" fill="none"/>
  <path d="M 120 456 C 520 444 1400 444 1800 456" stroke="url(#svg2cc26078-routeGlow)" stroke-width="10" stroke-linecap="round" fill="none"/>
  <g transform="translate(110.000,0)">
    <line x1="203.500" y1="466" x2="203.500" y2="542" stroke="var(--muted-text)" stroke-width="3" opacity="0.42"/>
    <circle cx="203.500" cy="456.000" r="22" fill="var(--panel)" opacity="0.92" stroke="var(--accent-1)" stroke-width="4"/>
    <circle cx="203.500" cy="456.000" r="8" fill="var(--accent-1)"/>
    <line x1="203.500" y1="240" x2="203.500" y2="248" stroke="var(--primary-text)" stroke-opacity="0.18" stroke-width="4"/>
    <g filter="url(#svg2cc26078-shadow)">
      <rect x="17" y="196" width="373.000" height="48" rx="18" fill="var(--panel)" fill-opacity="0.98" stroke="var(--accent-1)" stroke-opacity="0.65" stroke-width="2"/>
      <rect x="0" y="560" width="407.000" height="296" rx="30" fill="var(--panel)" fill-opacity="0.96" stroke="var(--primary-text)" stroke-opacity="0.10" stroke-width="1.5" id="ITEM_1_TEXT_BG"/>
      <path d="M 175.500 560 Q 203.500 538 231.500 560" fill="var(--panel)" fill-opacity="0.96"/>
    </g>
    <path d="M 22 620 L 385.000 620" stroke="var(--accent-1)" stroke-width="3" stroke-linecap="round" opacity="0.72"/>
    <circle id="ITEM_1_PAD" cx="203.500" cy="548" r="42" fill="var(--icon-pad-bg)" stroke="var(--primary-text)" opacity="0.96" fill-opacity="0.9" stroke-width="2"/>
    <circle id="ITEM_1_PAD_INNER" cx="203.500" cy="548" r="32.76" fill="var(--accent-10)" fill-opacity="0.22"/>
    <circle cx="203.500" cy="548" r="34" fill="none" stroke="var(--accent-1)" stroke-width="3" stroke-dasharray="7 5" opacity="0.95"/>
    <g id="ITEM_1_ICON" transform="translate(173.500, 518)" data-icon-size="60">
      <g transform="translate(-7.398584070796458,-7.398584070796458) scale(2.31929203539823)">
        <path d="M10.38 29.1038L23.28 30.0938C24.36 30.0938 25.38 29.5838 26.02 28.7138L29.2 24.4138C29.76 23.6438 29.98 22.6738 29.79 21.7438L29.2849 19.1806L28.12 18.3438L27.785 15.6438L28.4809 15.1008L28.45 14.9438C28.29 14.1238 27.84 13.3938 27.17 12.8938L23.38 9.52378L21 5.12378L18.1 4.96378L13.04 3.12378L6.37996 10.1638L4.76996 13.7738L4.50996 14.3538L2.84996 17.4238C2.67996 17.7238 2.86996 20.5038 2.80996 20.8438C2.80996 20.8438 9.75996 29.1038 10.38 29.1038Z" fill="#9B9B9B"/>
        <path d="M20 10.1038L15.95 21.2438L25.66 23.9438L29.29 19.1738L28.48 15.1038L20 10.1038Z" fill="#E6E6E6"/>
        <path d="M2.51 18.3936L2 22.1036H5L5.79 18.9736C5.92 18.4136 6.27 17.9436 6.76 17.6436L11 15.1036L7.95 8.4436L6.57 9.9536C6.44 10.0936 6.34 10.2536 6.26 10.4336L4.51 14.3636L2.85 17.4336C2.68 17.7336 2.57 18.0536 2.51 18.3936Z" fill="#636363"/>
        <path d="M11.51 20.6137L16 25.1037L25.66 23.9437L18.18 20.5437C17.52 20.2437 17.18 19.4937 17.39 18.7937L20 10.1037L21 5.12367C20.16 3.78367 19.77 3.40367 18.33 2.93367C17.37 2.59367 16.54 2.30367 16.54 2.30367C16.54 2.30367 16 2.07367 15.42 2.01367C14.69 1.95367 14.22 2.08367 13.6 2.55367L11 15.1037V19.3837C11 19.8437 11.18 20.2837 11.51 20.6137Z" fill="#D3D3D3"/>
        <path d="M2 22.1038H5L16 25.1038V30.0938L11.75 30.1038C10.6 30.1038 9.47 29.8438 8.44 29.3238L7.07 28.6438C6.36 28.2938 5.72 27.8238 5.16 27.2638L4.23 26.3338C3.42 25.5238 2.81 24.5438 2.45 23.4538L2 22.1038Z" fill="#636363"/>
        <path d="M29.98 22.9136C30.1 23.5736 29.92 24.2536 29.47 24.7636L25.5 29.2836C25.09 29.7536 24.33 30.0936 23.71 30.1036H16V25.1036L25.66 23.9436L29.28 19.1736L29.98 22.9136Z" fill="#9B9B9B"/>
        <path d="M17.51 4.43372L16.4 2.86372C15.72 1.90372 14.33 1.79372 13.51 2.64372L6.75003 9.68372C6.10003 10.3637 6.22003 11.4737 7.00003 11.9937L11 15.1037L15.63 10.8937C16.18 10.3937 16.58 9.75372 16.79 9.03372L17.74 5.78372C17.87 5.32372 17.79 4.82372 17.51 4.43372Z" fill="#9B9B9B"/>
      </g>
    </g>
    <g filter="url(#svg2cc26078-shadow)">
      <rect x="40.700" y="252" width="325.600" height="120" rx="24" fill="var(--accent-1)" stroke="var(--primary-text)" stroke-opacity="0.28" stroke-width="2.2"/>
      <path d="M 56.700 252 Q 203.500 234 350.300 252" fill="none" stroke="var(--primary-text)" stroke-opacity="0.30" stroke-width="3" stroke-linecap="round"/>
    </g>
    <rect x="56.700" y="270" width="293.600" height="14" rx="7" fill="var(--background)" fill-opacity="0.24"/>
    <rect x="61.700" y="306" width="85.200" height="34" rx="9" fill="url(#svg2cc26078-train-window-glass)" fill-opacity="0.92" stroke="var(--primary-text)" stroke-opacity="0.16" stroke-width="1"/>
    <rect x="160.900" y="306" width="85.200" height="34" rx="9" fill="url(#svg2cc26078-train-window-glass)" fill-opacity="0.92" stroke="var(--primary-text)" stroke-opacity="0.16" stroke-width="1"/>
    <rect x="260.100" y="306" width="85.200" height="34" rx="9" fill="url(#svg2cc26078-train-window-glass)" fill-opacity="0.92" stroke="var(--primary-text)" stroke-opacity="0.16" stroke-width="1"/>
    <circle cx="80.700" cy="384" r="13" fill="var(--background)" stroke="var(--primary-text)" stroke-opacity="0.20" stroke-width="1.5"/>
    <circle cx="326.300" cy="384" r="13" fill="var(--background)" stroke="var(--primary-text)" stroke-opacity="0.20" stroke-width="1.5"/>
    <line x1="80.700" y1="384" x2="326.300" y2="384" stroke="var(--primary-text)" stroke-opacity="0.22" stroke-width="4"/>
    <path d="M 6.700 352 L 40.700 352 L 40.700 372 L -15.300 372 Z" fill="var(--accent-1)" stroke="var(--primary-text)" stroke-opacity="0.26" stroke-width="2"/>
    <circle cx="12.700" cy="362" r="6" fill="var(--background)" opacity="0.9"/>
    <line x1="374.300" y1="333.600" x2="419.000" y2="333.600" stroke="var(--primary-text)" stroke-opacity="0.22" stroke-width="6" stroke-linecap="round"/>
    <text id="ITEM_1_HEAD" data-bg-id="ITEM_1_TEXT_BG" x="203.5" y="204.0" text-anchor="middle" font-weight="700" font-size="22" fill="var(--accent-10)" fill-opacity="1.0" stroke="none" style="font-size: 26px; font-family: Inter, Segoe UI, Kalam, Roboto, Helvetica, Arial, sans-serif; font-weight: 700; letter-spacing:-0.4px;" data-final-font-size="26">
      <tspan x="203.5" dy="20.85px">Gobustan Rock Art</tspan>
    </text>
    <rect id="ITEM_1_HEAD_FRAME" x="17" y="204" width="373.000" height="30" fill="none"/>
    <text id="ITEM_1_BODY" data-bg-id="ITEM_1_TEXT_BG" x="203.5" y="652.0" text-anchor="middle" font-size="16" fill="var(--primary-text)" style="font-size: 26px; font-family: Inter, Segoe UI, Kalam, Roboto, Helvetica, Arial, sans-serif; font-weight: 400;" data-final-font-size="26">
      <tspan x="203.5" dy="36.06px">Identified boat carvings</tspan>
      <tspan x="203.5" dy="29.90px">resembling Scandinavian</tspan>
      <tspan x="203.5" dy="29.90px">petroglyphs in Norway</tspan>
    </text>
    <rect id="ITEM_1_BODY_FRAME" x="22" y="652" width="363.000" height="166" fill="none"/>
  </g>
  <g transform="translate(541.000,0)">
    <line x1="203.500" y1="466" x2="203.500" y2="542" stroke="var(--muted-text)" stroke-width="3" opacity="0.42"/>
    <circle cx="203.500" cy="456.000" r="22" fill="var(--panel)" opacity="0.92" stroke="var(--accent-2)" stroke-width="4"/>
    <circle cx="203.500" cy="456.000" r="8" fill="var(--accent-2)"/>
    <line x1="203.500" y1="240" x2="203.500" y2="248" stroke="var(--primary-text)" stroke-opacity="0.18" stroke-width="4"/>
    <g filter="url(#svg2cc26078-shadow)">
      <rect x="17" y="196" width="373.000" height="48" rx="18" fill="var(--panel)" fill-opacity="0.98" stroke="var(--accent-2)" stroke-opacity="0.65" stroke-width="2"/>
      <rect x="0" y="560" width="407.000" height="296" rx="30" fill="var(--panel)" fill-opacity="0.96" stroke="var(--primary-text)" stroke-opacity="0.10" stroke-width="1.5" id="ITEM_2_TEXT_BG"/>
      <path d="M 175.500 560 Q 203.500 538 231.500 560" fill="var(--panel)" fill-opacity="0.96"/>
    </g>
    <path d="M 22 620 L 385.000 620" stroke="var(--accent-2)" stroke-width="3" stroke-linecap="round" opacity="0.72"/>
    <circle id="ITEM_2_PAD" cx="203.500" cy="548" r="42" fill="var(--icon-pad-bg)" stroke="var(--primary-text)" opacity="0.96" fill-opacity="0.9" stroke-width="2"/>
    <circle id="ITEM_2_PAD_INNER" cx="203.500" cy="548" r="32.76" fill="var(--accent-1)" fill-opacity="0.22"/>
    <circle cx="203.500" cy="548" r="34" fill="none" stroke="var(--accent-2)" stroke-width="3" stroke-dasharray="7 5" opacity="0.95"/>
    <g id="ITEM_2_ICON" transform="translate(173.500, 518)" data-icon-size="60">
      <g transform="translate(-7.108672566371679,-7.398584070796458) scale(2.31929203539823)">
        <path d="M23.5103 2.01H8.60027V2H4.45026V5H6.95026V27.07C6.95026 28.69 8.27026 30.01 9.89026 30.01H25.5603C26.3303 30.01 26.9503 29.39 26.9503 28.62V5.45C26.9503 3.55 25.4103 2.01 23.5103 2.01Z" fill="#FFDEA7"/>
        <path d="M10.8603 29.99C10.8603 29.99 13.1003 29.66 13.5903 27.49C13.6603 27.19 14.0003 26.97 14.4003 26.97H29.1303C29.6503 26.97 30.0403 27.33 29.9503 27.71C29.7203 28.6 29.3503 30 25.5803 30C20.0103 30 10.8603 29.99 10.8603 29.99Z" fill="#E19747"/>
        <path d="M6.95026 5C6.95026 3.34 5.83027 2 4.45026 2C3.26026 2 2.27028 3 2.01028 4.33C1.95028 4.67 2.16026 5 2.45026 5H6.95026Z" fill="#D3883E"/>
        <path d="M10.4203 11.87C10.1441 11.87 9.92029 12.0939 9.92029 12.37C9.92029 12.6461 10.1441 12.87 10.4203 12.87H23.5003C23.7764 12.87 24.0003 12.6461 24.0003 12.37C24.0003 12.0939 23.7764 11.87 23.5003 11.87H10.4203ZM9.98029 15.33C9.98029 15.0539 10.2041 14.83 10.4803 14.83H23.5003C23.7764 14.83 24.0003 15.0539 24.0003 15.33C24.0003 15.6062 23.7764 15.83 23.5003 15.83H10.4803C10.2041 15.83 9.98029 15.6062 9.98029 15.33ZM10.4803 17.85C10.2041 17.85 9.98029 18.0738 9.98029 18.35C9.98029 18.6261 10.2041 18.85 10.4803 18.85H23.5003C23.7764 18.85 24.0003 18.6261 24.0003 18.35C24.0003 18.0738 23.7764 17.85 23.5003 17.85H10.4803ZM10.5103 20.83C10.2341 20.83 10.0103 21.0539 10.0103 21.33C10.0103 21.6062 10.2341 21.83 10.5103 21.83H18.4703C18.7464 21.83 18.9703 21.6062 18.9703 21.33C18.9703 21.0539 18.7464 20.83 18.4703 20.83H10.5103Z" fill="#D3883E"/>
      </g>
    </g>
    <g filter="url(#svg2cc26078-shadow)">
      <rect x="40.700" y="252" width="325.600" height="120" rx="24" fill="var(--accent-2)" stroke="var(--primary-text)" stroke-opacity="0.28" stroke-width="2.2"/>
      <path d="M 56.700 252 Q 203.500 234 350.300 252" fill="none" stroke="var(--primary-text)" stroke-opacity="0.30" stroke-width="3" stroke-linecap="round"/>
    </g>
    <rect x="56.700" y="270" width="293.600" height="14" rx="7" fill="var(--background)" fill-opacity="0.24"/>
    <rect x="61.700" y="306" width="85.200" height="34" rx="9" fill="url(#svg2cc26078-train-window-glass)" fill-opacity="0.92" stroke="var(--primary-text)" stroke-opacity="0.16" stroke-width="1"/>
    <rect x="160.900" y="306" width="85.200" height="34" rx="9" fill="url(#svg2cc26078-train-window-glass)" fill-opacity="0.92" stroke="var(--primary-text)" stroke-opacity="0.16" stroke-width="1"/>
    <rect x="260.100" y="306" width="85.200" height="34" rx="9" fill="url(#svg2cc26078-train-window-glass)" fill-opacity="0.92" stroke="var(--primary-text)" stroke-opacity="0.16" stroke-width="1"/>
    <circle cx="80.700" cy="384" r="13" fill="var(--background)" stroke="var(--primary-text)" stroke-opacity="0.20" stroke-width="1.5"/>
    <circle cx="326.300" cy="384" r="13" fill="var(--background)" stroke="var(--primary-text)" stroke-opacity="0.20" stroke-width="1.5"/>
    <line x1="80.700" y1="384" x2="326.300" y2="384" stroke="var(--primary-text)" stroke-opacity="0.22" stroke-width="4"/>
    <line x1="374.300" y1="333.600" x2="419.000" y2="333.600" stroke="var(--primary-text)" stroke-opacity="0.22" stroke-width="6" stroke-linecap="round"/>
    <text id="ITEM_2_HEAD" data-bg-id="ITEM_2_TEXT_BG" x="203.5" y="204.0" text-anchor="middle" font-weight="700" font-size="22" fill="var(--accent-1)" fill-opacity="1.0" stroke="none" style="font-size: 26px; font-family: Inter, Segoe UI, Kalam, Roboto, Helvetica, Arial, sans-serif; font-weight: 700; letter-spacing:-0.4px;" data-final-font-size="26">
      <tspan x="203.5" dy="20.85px">Medieval Icelandic Sagas</tspan>
    </text>
    <rect id="ITEM_2_HEAD_FRAME" x="17" y="204" width="373.000" height="30" fill="none"/>
    <text id="ITEM_2_BODY" data-bg-id="ITEM_2_TEXT_BG" x="203.5" y="652.0" text-anchor="middle" font-size="16" fill="var(--primary-text)" style="font-size: 26px; font-family: Inter, Segoe UI, Kalam, Roboto, Helvetica, Arial, sans-serif; font-weight: 400;" data-final-font-size="26">
      <tspan x="203.5" dy="36.06px">Analyzed Ynglinga Saga</tspan>
      <tspan x="203.5" dy="29.90px">to find historical migration</tspan>
      <tspan x="203.5" dy="29.90px">fragments</tspan>
    </text>
    <rect id="ITEM_2_BODY_FRAME" x="22" y="652" width="363.000" height="166" fill="none"/>
  </g>
  <g transform="translate(972.000,0)">
    <line x1="203.500" y1="466" x2="203.500" y2="542" stroke="var(--muted-text)" stroke-width="3" opacity="0.42"/>
    <circle cx="203.500" cy="456.000" r="22" fill="var(--panel)" opacity="0.92" stroke="var(--accent-3)" stroke-width="4"/>
    <circle cx="203.500" cy="456.000" r="8" fill="var(--accent-3)"/>
    <line x1="203.500" y1="240" x2="203.500" y2="248" stroke="var(--primary-text)" stroke-opacity="0.18" stroke-width="4"/>
    <g filter="url(#svg2cc26078-shadow)">
      <rect x="17" y="196" width="373.000" height="48" rx="18" fill="var(--panel)" fill-opacity="0.98" stroke="var(--accent-3)" stroke-opacity="0.65" stroke-width="2"/>
      <rect x="0" y="560" width="407.000" height="296" rx="30" fill="var(--panel)" fill-opacity="0.96" stroke="var(--primary-text)" stroke-opacity="0.10" stroke-width="1.5" id="ITEM_3_TEXT_BG"/>
      <path d="M 175.500 560 Q 203.500 538 231.500 560" fill="var(--panel)" fill-opacity="0.96"/>
    </g>
    <path d="M 22 620 L 385.000 620" stroke="var(--accent-3)" stroke-width="3" stroke-linecap="round" opacity="0.72"/>
    <circle id="ITEM_3_PAD" cx="203.500" cy="548" r="42" fill="var(--icon-pad-bg)" stroke="var(--primary-text)" opacity="0.96" fill-opacity="0.9" stroke-width="2"/>
    <circle id="ITEM_3_PAD_INNER" cx="203.500" cy="548" r="32.76" fill="var(--accent-2)" fill-opacity="0.22"/>
    <circle cx="203.500" cy="548" r="34" fill="none" stroke="var(--accent-3)" stroke-width="3" stroke-dasharray="7 5" opacity="0.95"/>
    <g id="ITEM_3_ICON" transform="translate(173.500, 518)" data-icon-size="60">
      <g transform="translate(-8.826666666666664,-8.826666666666668) scale(3.2355555555555555)" vector-effect="non-scaling-stroke" stroke-width="2.43" stroke-linecap="round" stroke-linejoin="round" stroke-opacity="1.0">
        <path d="M14.106 5.553a2 2 0 0 0 1.788 0l3.659-1.83A1 1 0 0 1 21 4.619v12.764a1 1 0 0 1-.553.894l-4.553 2.277a2 2 0 0 1-1.788 0l-4.212-2.106a2 2 0 0 0-1.788 0l-3.659 1.83A1 1 0 0 1 3 19.381V6.618a1 1 0 0 1 .553-.894l4.553-2.277a2 2 0 0 1 1.788 0z" vector-effect="non-scaling-stroke" fill="none" stroke="#f1f5f9"/>
        <path d="M15 5.764v15" vector-effect="non-scaling-stroke" fill="none" stroke="#f1f5f9"/>
        <path d="M9 3.236v15" vector-effect="non-scaling-stroke" fill="none" stroke="#f1f5f9"/>
      </g>
    </g>
    <g filter="url(#svg2cc26078-shadow)">
      <rect x="40.700" y="252" width="325.600" height="120" rx="24" fill="var(--accent-3)" stroke="var(--primary-text)" stroke-opacity="0.28" stroke-width="2.2"/>
      <path d="M 56.700 252 Q 203.500 234 350.300 252" fill="none" stroke="var(--primary-text)" stroke-opacity="0.30" stroke-width="3" stroke-linecap="round"/>
    </g>
    <rect x="56.700" y="270" width="293.600" height="14" rx="7" fill="var(--background)" fill-opacity="0.24"/>
    <rect x="61.700" y="306" width="85.200" height="34" rx="9" fill="url(#svg2cc26078-train-window-glass)" fill-opacity="0.92" stroke="var(--primary-text)" stroke-opacity="0.16" stroke-width="1"/>
    <rect x="160.900" y="306" width="85.200" height="34" rx="9" fill="url(#svg2cc26078-train-window-glass)" fill-opacity="0.92" stroke="var(--primary-text)" stroke-opacity="0.16" stroke-width="1"/>
    <rect x="260.100" y="306" width="85.200" height="34" rx="9" fill="url(#svg2cc26078-train-window-glass)" fill-opacity="0.92" stroke="var(--primary-text)" stroke-opacity="0.16" stroke-width="1"/>
    <circle cx="80.700" cy="384" r="13" fill="var(--background)" stroke="var(--primary-text)" stroke-opacity="0.20" stroke-width="1.5"/>
    <circle cx="326.300" cy="384" r="13" fill="var(--background)" stroke="var(--primary-text)" stroke-opacity="0.20" stroke-width="1.5"/>
    <line x1="80.700" y1="384" x2="326.300" y2="384" stroke="var(--primary-text)" stroke-opacity="0.22" stroke-width="4"/>
    <line x1="374.300" y1="333.600" x2="419.000" y2="333.600" stroke="var(--primary-text)" stroke-opacity="0.22" stroke-width="6" stroke-linecap="round"/>
    <text id="ITEM_3_HEAD" data-bg-id="ITEM_3_TEXT_BG" x="203.5" y="204.0" text-anchor="middle" font-weight="700" font-size="22" fill="var(--accent-2)" fill-opacity="1.0" stroke="none" style="font-size: 26px; font-family: Inter, Segoe UI, Kalam, Roboto, Helvetica, Arial, sans-serif; font-weight: 700; letter-spacing:-0.4px;" data-final-font-size="26">
      <tspan x="203.5" dy="20.85px">Caucasus Geographic Links</tspan>
    </text>
    <rect id="ITEM_3_HEAD_FRAME" x="17" y="204" width="373.000" height="30" fill="none"/>
    <text id="ITEM_3_BODY" data-bg-id="ITEM_3_TEXT_BG" x="203.5" y="652.0" text-anchor="middle" font-size="16" fill="var(--primary-text)" style="font-size: 26px; font-family: Inter, Segoe UI, Kalam, Roboto, Helvetica, Arial, sans-serif; font-weight: 400;" data-final-font-size="26">
      <tspan x="203.5" dy="42.04px">Mapped the land of Æsir</tspan>
      <tspan x="203.5" dy="29.90px">to Sea of Azov</tspan>
    </text>
    <rect id="ITEM_3_BODY_FRAME" x="22" y="652" width="363.000" height="166" fill="none"/>
  </g>
  <g transform="translate(1403.000,0)">
    <line x1="203.500" y1="466" x2="203.500" y2="542" stroke="var(--muted-text)" stroke-width="3" opacity="0.42"/>
    <circle cx="203.500" cy="456.000" r="22" fill="var(--panel)" opacity="0.92" stroke="var(--accent-4)" stroke-width="4"/>
    <circle cx="203.500" cy="456.000" r="8" fill="var(--accent-4)"/>
    <line x1="203.500" y1="240" x2="203.500" y2="248" stroke="var(--primary-text)" stroke-opacity="0.18" stroke-width="4"/>
    <g filter="url(#svg2cc26078-shadow)">
      <rect x="17" y="196" width="373.000" height="48" rx="18" fill="var(--panel)" fill-opacity="0.98" stroke="var(--accent-4)" stroke-opacity="0.65" stroke-width="2"/>
      <rect x="0" y="560" width="407.000" height="296" rx="30" fill="var(--panel)" fill-opacity="0.96" stroke="var(--primary-text)" stroke-opacity="0.10" stroke-width="1.5" id="ITEM_4_TEXT_BG"/>
      <path d="M 175.500 560 Q 203.500 538 231.500 560" fill="var(--panel)" fill-opacity="0.96"/>
    </g>
    <path d="M 22 620 L 385.000 620" stroke="var(--accent-4)" stroke-width="3" stroke-linecap="round" opacity="0.72"/>
    <circle id="ITEM_4_PAD" cx="203.500" cy="548" r="42" fill="var(--icon-pad-bg)" stroke="var(--primary-text)" opacity="0.96" fill-opacity="0.9" stroke-width="2"/>
    <circle id="ITEM_4_PAD_INNER" cx="203.500" cy="548" r="32.76" fill="var(--accent-3)" fill-opacity="0.22"/>
    <circle cx="203.500" cy="548" r="34" fill="none" stroke="var(--accent-4)" stroke-width="3" stroke-dasharray="7 5" opacity="0.95"/>
    <g id="ITEM_4_ICON" transform="translate(173.500, 518)" data-icon-size="60">
      <g transform="translate(-7.398584070796458,-12.03716814159292) scale(2.31929203539823)">
        <path d="M25.34 7.68398C23.2959 7.68398 21.6389 9.34099 21.6389 11.385C21.6389 13.4291 23.2959 15.0861 25.34 15.0861C27.384 15.0861 29.041 13.4291 29.041 11.385C29.041 9.34099 27.384 7.68398 25.34 7.68398ZM20.621 11.385C20.621 8.77882 22.7338 6.66608 25.34 6.66608C27.9462 6.66608 30.0589 8.77882 30.0589 11.385C30.0589 13.9912 27.9462 16.104 25.34 16.104C22.7338 16.104 20.621 13.9912 20.621 11.385Z" fill="#D3D3D3"/>
        <path d="M24.19 17.675L26.12 12.655C26.32 12.135 26.2 11.535 25.8 11.135L21.08 6.41501C20.68 6.01501 20.09 5.89501 19.56 6.09501L14.54 8.02501C14.16 8.17501 13.81 8.39501 13.52 8.68501L2.42 19.785C1.86 20.345 1.86 21.245 2.42 21.795L10.42 29.795C10.98 30.355 11.88 30.355 12.43 29.795L23.53 18.695C23.82 18.405 24.04 18.065 24.19 17.675ZM19.21 13.015C18.52 12.325 18.52 11.215 19.21 10.525C19.9 9.83501 21.01 9.83501 21.7 10.525C22.39 11.215 22.39 12.325 21.7 13.015C21.01 13.695 19.89 13.695 19.21 13.015Z" fill="#FCD53F"/>
        <path d="M20.45 10.015C20.9 10.015 21.35 10.185 21.69 10.535C22.38 11.225 22.38 12.335 21.69 13.025C21.35 13.365 20.9 13.545 20.45 13.545C20 13.545 19.55 13.375 19.21 13.025C18.52 12.335 18.52 11.225 19.21 10.535C19.55 10.185 20 10.015 20.45 10.015ZM20.45 9.07501C19.73 9.07501 19.05 9.35501 18.54 9.86501C17.49 10.915 17.49 12.625 18.54 13.685C19.05 14.195 19.73 14.475 20.45 14.475C21.17 14.475 21.85 14.195 22.36 13.685C23.41 12.635 23.41 10.925 22.36 9.86501C21.85 9.35501 21.17 9.07501 20.45 9.07501Z" fill="#F8312F"/>
        <path d="M21.13 10.876C21.4111 10.876 21.6389 11.1039 21.6389 11.385C21.6389 12.3365 21.9998 13.2851 22.7199 14.0051C23.0027 14.2879 23.3184 14.5152 23.6476 14.6798L23.6499 14.6809C24.3452 15.033 25.1302 15.1569 25.8896 15.0509C26.168 15.0121 26.4252 15.2063 26.464 15.4847C26.5029 15.763 26.3087 16.0202 26.0303 16.0591C25.0702 16.193 24.0756 16.0371 23.1912 15.5896C22.7609 15.3743 22.357 15.0818 22.0001 14.7249C21.0801 13.8049 20.621 12.5934 20.621 11.385C20.621 11.1039 20.8489 10.876 21.13 10.876Z" fill="#D3D3D3"/>
      </g>
    </g>
    <g filter="url(#svg2cc26078-shadow)">
      <rect x="40.700" y="252" width="325.600" height="120" rx="24" fill="var(--accent-4)" stroke="var(--primary-text)" stroke-opacity="0.28" stroke-width="2.2"/>
      <path d="M 56.700 252 Q 203.500 234 350.300 252" fill="none" stroke="var(--primary-text)" stroke-opacity="0.30" stroke-width="3" stroke-linecap="round"/>
    </g>
    <rect x="56.700" y="270" width="293.600" height="14" rx="7" fill="var(--background)" fill-opacity="0.24"/>
    <rect x="61.700" y="306" width="85.200" height="34" rx="9" fill="url(#svg2cc26078-train-window-glass)" fill-opacity="0.92" stroke="var(--primary-text)" stroke-opacity="0.16" stroke-width="1"/>
    <rect x="160.900" y="306" width="85.200" height="34" rx="9" fill="url(#svg2cc26078-train-window-glass)" fill-opacity="0.92" stroke="var(--primary-text)" stroke-opacity="0.16" stroke-width="1"/>
    <rect x="260.100" y="306" width="85.200" height="34" rx="9" fill="url(#svg2cc26078-train-window-glass)" fill-opacity="0.92" stroke="var(--primary-text)" stroke-opacity="0.16" stroke-width="1"/>
    <circle cx="80.700" cy="384" r="13" fill="var(--background)" stroke="var(--primary-text)" stroke-opacity="0.20" stroke-width="1.5"/>
    <circle cx="326.300" cy="384" r="13" fill="var(--background)" stroke="var(--primary-text)" stroke-opacity="0.20" stroke-width="1.5"/>
    <line x1="80.700" y1="384" x2="326.300" y2="384" stroke="var(--primary-text)" stroke-opacity="0.22" stroke-width="4"/>
    <text id="ITEM_4_HEAD" data-bg-id="ITEM_4_TEXT_BG" x="203.5" y="204.0" text-anchor="middle" font-weight="700" font-size="22" fill="var(--accent-3)" fill-opacity="1.0" stroke="none" style="font-size: 26px; font-family: Inter, Segoe UI, Kalam, Roboto, Helvetica, Arial, sans-serif; font-weight: 700; letter-spacing:-0.4px;" data-final-font-size="26">
      <tspan x="203.5" dy="20.85px">Linguistic Name Parallels</tspan>
    </text>
    <rect id="ITEM_4_HEAD_FRAME" x="17" y="204" width="373.000" height="30" fill="none"/>
    <text id="ITEM_4_BODY" data-bg-id="ITEM_4_TEXT_BG" x="203.5" y="652.0" text-anchor="middle" font-size="16" fill="var(--primary-text)" style="font-size: 26px; font-family: Inter, Segoe UI, Kalam, Roboto, Helvetica, Arial, sans-serif; font-weight: 400;" data-final-font-size="26">
      <tspan x="203.5" dy="42.04px">Linked Norse names to modern</tspan>
      <tspan x="203.5" dy="29.90px">ethnic and regional labels</tspan>
    </text>
    <rect id="ITEM_4_BODY_FRAME" x="22" y="652" width="363.000" height="166" fill="none"/>
  </g>
</svg>
