<?xml version='1.0' encoding='utf-8'?>
<svg xmlns="http://www.w3.org/2000/svg" width="1920" height="1080" viewBox="0 0 1920 1080" data-theme="dark">
  <style>
        @font-face {
            font-family: 'Inter';
            src: url('assets/fonts/Inter-Regular.ttf') format('truetype');
            font-weight: 400;
            font-style: normal;
            font-display: swap;
        }
        @font-face {
            font-family: 'Inter';
            src: url('assets/fonts/Inter-Bold.ttf') format('truetype');
            font-weight: 600;
            font-style: normal;
            font-display: swap;
        }
        @font-face {
            font-family: 'Inter';
            src: url('assets/fonts/Inter-Bold.ttf') format('truetype');
            font-weight: 800;
            font-style: normal;
            font-display: swap;
        }
        
:root {
    --background: #0f172a;
    --panel: #1e293b;
    --primary-text: #f1f5f9;
    --muted-text: #94a3b8;
    --inverse-text: #0f172a;
    --border: #334155;
    --shadow-color: #000000;
    --icon-pad-bg: #1e293b;
    --art-glow: #7dd3fc;
    --art-glow-opacity: 0.18;
    --art-sheen: #ffffff;
    --art-sheen-opacity: 0.18;
    --art-shadow: #000000;
    --art-shadow-opacity: 0.28;
    --art-muted-line: #64748b;
    --art-panel-tint: #1e293b;
    --font-family: 'Inter', 'Segoe UI', 'Kalam', Roboto, Helvetica, Arial, sans-serif;
    --radius-xl: 16px;
    --font-family-headline: 'Inter', 'Segoe UI', 'Kalam', Roboto, Helvetica, Arial, sans-serif;
    --font-family-body: 'Inter', 'Segoe UI', 'Kalam', Roboto, Helvetica, Arial, sans-serif;
    --font-heading: 'Inter', 'Segoe UI', 'Kalam', Roboto, Helvetica, Arial, sans-serif;
    --font-body: 'Inter', 'Segoe UI', 'Kalam', Roboto, Helvetica, Arial, sans-serif;
    --font-size-h1: 56px;
    --font-size-h2: 40px;
    --font-size-h3: 28px;
    --font-size-body: 24px;
    --font-size-caption: 18px;
    --secondary-text: var(--muted-text);
    --panel-border: var(--border);
    --font-weight-normal: 400;
    --font-weight-medium: 500;
    --font-weight-semibold: 600;
    --font-weight-bold: 700;
    --spacing-gutter-pct: 0.07;
    --spacing-top-pct: 0.15;
    --spacing-bottom-pct: 0.07;
    --spacing-title-y-pct: 0.055;
    --accent-1: #60a5fa;
    --accent-2: #4ade80;
    --accent-3: #f97316;
    --accent-4: #a78bfa;
    --accent-5: #38bdf8;
    --accent-6: #94a3b8;
}
:root[data-theme="dark"] {
    --background: #0f172a;
    --panel: #1e293b;
    --primary-text: #f1f5f9;
    --muted-text: #94a3b8;
    --inverse-text: #0f172a;
    --border: #334155;
    --shadow-color: #000000;
    --icon-pad-bg: #1e293b;
    --art-glow: #7dd3fc;
    --art-glow-opacity: 0.18;
    --art-sheen: #ffffff;
    --art-sheen-opacity: 0.18;
    --art-shadow: #000000;
    --art-shadow-opacity: 0.28;
    --art-muted-line: #64748b;
    --art-panel-tint: #1e293b;
    --accent-1: #60a5fa;
    --accent-2: #4ade80;
    --accent-3: #f97316;
    --accent-4: #a78bfa;
    --accent-5: #38bdf8;
    --accent-6: #94a3b8;
}
:root[data-theme="light"] {
    --background: #f8fafc;
    --panel: #ffffff;
    --primary-text: #0f172a;
    --muted-text: #64748b;
    --inverse-text: #ffffff;
    --border: #e2e8f0;
    --shadow-color: #000000;
    --icon-pad-bg: #1e293b;
    --art-glow: #0891b2;
    --art-glow-opacity: 0.10;
    --art-sheen: #ffffff;
    --art-sheen-opacity: 0.34;
    --art-shadow: #0f172a;
    --art-shadow-opacity: 0.14;
    --art-muted-line: #94a3b8;
    --art-panel-tint: #f1f5f9;
    --accent-1: #2563eb;
    --accent-2: #16a34a;
    --accent-3: #ea580c;
    --accent-4: #7c3aed;
    --accent-5: #0284c7;
    --accent-6: #475569;
}</style>
  <rect x="0" y="0" width="1.92E+3" height="1.08E+3" fill="#252a34" stroke="none" id="programmatic_background"/>
  <line id="HEADER_DECOR" x1="960.0" x2="1080.0" y1="85.0" y2="85.0" stroke="var(--accent-1)" stroke-width="6" stroke-linecap="round"/>
  <defs>
    <pattern id="svg454d49c2-napkin-hatch" patternUnits="userSpaceOnUse" width="12" height="12">
      <path d="M -3 12 L 12 -3 M 0 15 L 15 0" fill="none" stroke="var(--primary-text)" stroke-width="1" stroke-opacity="0.05"/>
    </pattern>
    <filter id="svg454d49c2-shadow" x="-30%" y="-30%" width="160%" height="160%">
      <feDropShadow dx="0" dy="2" stdDeviation="3" flood-color="#000000" flood-opacity="0.08"/>
      <feDropShadow dx="0" dy="6" stdDeviation="10" flood-color="#000000" flood-opacity="0.12"/>
    </filter>
    <marker id="svg454d49c2-arrowhead" markerWidth="10" markerHeight="10" refX="9" refY="5" orient="auto">
      <path d="M 0 0 L 10 5 L 0 10 Z" fill="var(--accent-1)"/>
    </marker>
    <filter id="svg454d49c2-text-glow" x="-20%" y="-20%" width="140%" height="140%">
      <feDropShadow dx="0" dy="0" stdDeviation="2" flood-color="#000000" flood-opacity="0.4"/>
    </filter>
    <linearGradient id="svg454d49c2-beam-grad" x1="0%" y1="0%" x2="100%" y2="0%">
      <stop offset="0%" stop-color="var(--accent-3)" stop-opacity="0.6"/>
      <stop offset="100%" stop-color="var(--accent-3)" stop-opacity="0"/>
    </linearGradient>
    <linearGradient id="svg454d49c2-lantern-grad" x1="0%" y1="0%" x2="0%" y2="100%">
      <stop offset="0%" stop-color="var(--accent-3)"/>
      <stop offset="100%" stop-color="var(--accent-3)"/>
    </linearGradient>
    <linearGradient id="svg454d49c2-level-grad-5" x1="0%" y1="0%" x2="0%" y2="100%">
      <stop offset="0%" stop-color="var(--accent-7)"/>
      <stop offset="100%" stop-color="var(--accent-7)"/>
    </linearGradient>
    <linearGradient id="svg454d49c2-level-grad-4" x1="0%" y1="0%" x2="0%" y2="100%">
      <stop offset="0%" stop-color="var(--accent-1)"/>
      <stop offset="100%" stop-color="var(--accent-1)"/>
    </linearGradient>
    <linearGradient id="svg454d49c2-level-grad-3" x1="0%" y1="0%" x2="0%" y2="100%">
      <stop offset="0%" stop-color="var(--accent-4)"/>
      <stop offset="100%" stop-color="var(--accent-4)"/>
    </linearGradient>
    <linearGradient id="svg454d49c2-level-grad-2" x1="0%" y1="0%" x2="0%" y2="100%">
      <stop offset="0%" stop-color="var(--accent-2)"/>
      <stop offset="100%" stop-color="var(--accent-2)"/>
    </linearGradient>
    <linearGradient id="svg454d49c2-level-grad-1" x1="0%" y1="0%" x2="0%" y2="100%">
      <stop offset="0%" stop-color="var(--accent-6)"/>
      <stop offset="100%" stop-color="var(--accent-6)"/>
    </linearGradient>
    <radialGradient id="svg454d49c2-universal-edge-vignette" cx="50%" cy="50%" r="72%">
      <stop offset="0%" stop-color="var(--background)" stop-opacity="0"/>
      <stop offset="72%" stop-color="var(--background)" stop-opacity="0.12"/>
      <stop offset="100%" stop-color="var(--primary-text)" stop-opacity="0.08"/>
    </radialGradient>
    <linearGradient id="svg454d49c2-universal-surface-sheen" x1="0%" y1="0%" x2="100%" y2="100%">
      <stop offset="0%" stop-color="var(--art-sheen)" stop-opacity="var(--art-sheen-opacity)"/>
      <stop offset="46%" stop-color="var(--art-sheen)" stop-opacity="0.035"/>
      <stop offset="100%" stop-color="var(--art-panel-tint)" stop-opacity="0.14"/>
    </linearGradient>
    <radialGradient id="svg454d49c2-universal-icon-aura" cx="50%" cy="42%" r="64%">
      <stop offset="0%" stop-color="var(--art-glow)" stop-opacity="var(--art-glow-opacity)"/>
      <stop offset="100%" stop-color="var(--background)" stop-opacity="0"/>
    </radialGradient>
  </defs>
  <rect width="100%" height="100%" fill="var(--background)" id="CANVAS_BG"/>
  <rect width="100%" height="100%" fill="url(#svg454d49c2-napkin-hatch)"/>
  <rect id="UNIVERSAL_EDGE_VIGNETTE" width="100%" height="100%" fill="url(#svg454d49c2-universal-edge-vignette)" opacity="0.62"/>
  <text id="TITLE" x="960.0" y="59" font-size="56" font-weight="700" fill="#f1f5f9" text-anchor="middle" style="font-size: 60px; font-family: Inter, Segoe UI, Kalam, Roboto, Helvetica, Arial, sans-serif; font-weight: 700; letter-spacing:-1.2px;" data-final-font-size="60">
    <tspan x="960.0" dy="68.00px">Brunei Public Order Act Section 34</tspan>
  </text>
  <rect id="TITLE_FRAME" x="134" y="25" width="1652" height="70" fill="none"/>
  <g id="DIAGRAM_MAIN" transform="translate(0, 100)">
    <rect x="880.0" y="120" width="160" height="80" fill="url(#svg454d49c2-lantern-grad)" filter="url(#svg454d49c2-shadow)" stroke="var(--primary-text)" stroke-width="2"/>
    <path d="M 860.0 120 Q 960 60 1060.0 120 Z" fill="var(--primary-text)"/>
    <path d="M 1040.0 160 L 1720 20 L 1720 320 Z" fill="url(#svg454d49c2-beam-grad)" opacity="0.24"/>
    <path d="M 1040 160 L 1718 92" stroke="var(--inverse-text)" stroke-width="2" stroke-opacity="0.12"/>
    <path d="M 1040 160 L 1718 250" stroke="var(--inverse-text)" stroke-width="2" stroke-opacity="0.08"/>
    <path d="M 1040 160 L 1718 92" stroke="var(--inverse-text)" stroke-width="2" stroke-opacity="0.12"/>
    <path d="M 1040 160 L 1718 250" stroke="var(--inverse-text)" stroke-width="2" stroke-opacity="0.08"/>
    <path d="M 1040 160 L 1718 92" stroke="var(--inverse-text)" stroke-width="2" stroke-opacity="0.12"/>
    <path d="M 1040 160 L 1718 250" stroke="var(--inverse-text)" stroke-width="2" stroke-opacity="0.08"/>
    <path d="M 1040 160 L 1718 92" stroke="var(--inverse-text)" stroke-width="2" stroke-opacity="0.12"/>
    <path d="M 1040 160 L 1718 250" stroke="var(--inverse-text)" stroke-width="2" stroke-opacity="0.08"/>
    <path d="M 1040 160 L 1718 92" stroke="var(--inverse-text)" stroke-width="2" stroke-opacity="0.12"/>
    <path d="M 1040 160 L 1718 250" stroke="var(--inverse-text)" stroke-width="2" stroke-opacity="0.08"/>
    <path d="M 1040 160 L 1718 92" stroke="var(--inverse-text)" stroke-width="2" stroke-opacity="0.12"/>
    <path d="M 1040 160 L 1718 250" stroke="var(--inverse-text)" stroke-width="2" stroke-opacity="0.08"/>
    <path d="M 1040 160 L 1718 92" stroke="var(--inverse-text)" stroke-width="2" stroke-opacity="0.12"/>
    <path d="M 1040 160 L 1718 250" stroke="var(--inverse-text)" stroke-width="2" stroke-opacity="0.08"/>
    <path d="M 1040 160 L 1718 92" stroke="var(--inverse-text)" stroke-width="2" stroke-opacity="0.12"/>
    <path d="M 1040 160 L 1718 250" stroke="var(--inverse-text)" stroke-width="2" stroke-opacity="0.08"/>
    <path d="M 1040 160 L 1718 92" stroke="var(--inverse-text)" stroke-width="2" stroke-opacity="0.12"/>
    <path d="M 1040 160 L 1718 250" stroke="var(--inverse-text)" stroke-width="2" stroke-opacity="0.08"/>
    <path d="M 1040 160 L 1718 92" stroke="var(--inverse-text)" stroke-width="2" stroke-opacity="0.12"/>
    <path d="M 1040 160 L 1718 250" stroke="var(--inverse-text)" stroke-width="2" stroke-opacity="0.08"/>
    <path d="M 1040 160 L 1718 92" stroke="var(--inverse-text)" stroke-width="2" stroke-opacity="0.12"/>
    <path d="M 1040 160 L 1718 250" stroke="var(--inverse-text)" stroke-width="2" stroke-opacity="0.08"/>
    <path d="M 1040 160 L 1718 92" stroke="var(--inverse-text)" stroke-width="2" stroke-opacity="0.12"/>
    <path d="M 1040 160 L 1718 250" stroke="var(--inverse-text)" stroke-width="2" stroke-opacity="0.08"/>
    <path d="M 1040 160 L 1718 92" stroke="var(--inverse-text)" stroke-width="2" stroke-opacity="0.12"/>
    <path d="M 1040 160 L 1718 250" stroke="var(--inverse-text)" stroke-width="2" stroke-opacity="0.08"/>
    <path d="M 1040 160 L 1718 92" stroke="var(--inverse-text)" stroke-width="2" stroke-opacity="0.12"/>
    <path d="M 1040 160 L 1718 250" stroke="var(--inverse-text)" stroke-width="2" stroke-opacity="0.08"/>
    <path d="M 1040 160 L 1718 92" stroke="var(--inverse-text)" stroke-width="2" stroke-opacity="0.12"/>
    <path d="M 1040 160 L 1718 250" stroke="var(--inverse-text)" stroke-width="2" stroke-opacity="0.08"/>
    <path d="M 1040 160 L 1718 92" stroke="var(--inverse-text)" stroke-width="2" stroke-opacity="0.12"/>
    <path d="M 1040 160 L 1718 250" stroke="var(--inverse-text)" stroke-width="2" stroke-opacity="0.08"/>
    <path d="M 1040 160 L 1718 92" stroke="var(--inverse-text)" stroke-width="2" stroke-opacity="0.12"/>
    <path d="M 1040 160 L 1718 250" stroke="var(--inverse-text)" stroke-width="2" stroke-opacity="0.08"/>
    <path d="M 1040 160 L 1718 92" stroke="var(--inverse-text)" stroke-width="2" stroke-opacity="0.12"/>
    <path d="M 1040 160 L 1718 250" stroke="var(--inverse-text)" stroke-width="2" stroke-opacity="0.08"/>
    <path d="M 1040 160 L 1718 92" stroke="var(--inverse-text)" stroke-width="2" stroke-opacity="0.12"/>
    <path d="M 1040 160 L 1718 250" stroke="var(--inverse-text)" stroke-width="2" stroke-opacity="0.08"/>
    <path d="M 1040 160 L 1718 92" stroke="var(--inverse-text)" stroke-width="2" stroke-opacity="0.12"/>
    <path d="M 1040 160 L 1718 250" stroke="var(--inverse-text)" stroke-width="2" stroke-opacity="0.08"/>
    <path d="M 1040 160 L 1718 92" stroke="var(--inverse-text)" stroke-width="2" stroke-opacity="0.12"/>
    <path d="M 1040 160 L 1718 250" stroke="var(--inverse-text)" stroke-width="2" stroke-opacity="0.08"/>
    <path d="M 1040 160 L 1718 92" stroke="var(--inverse-text)" stroke-width="2" stroke-opacity="0.12"/>
    <path d="M 1040 160 L 1718 250" stroke="var(--inverse-text)" stroke-width="2" stroke-opacity="0.08"/>
    <path d="M 1040 160 L 1718 92" stroke="var(--inverse-text)" stroke-width="2" stroke-opacity="0.12"/>
    <path d="M 1040 160 L 1718 250" stroke="var(--inverse-text)" stroke-width="2" stroke-opacity="0.08"/>
    <path d="M 1040 160 L 1718 92" stroke="var(--inverse-text)" stroke-width="2" stroke-opacity="0.12"/>
    <path d="M 1040 160 L 1718 250" stroke="var(--inverse-text)" stroke-width="2" stroke-opacity="0.08"/>
    <path d="M 1040 160 L 1718 92" stroke="var(--inverse-text)" stroke-width="2" stroke-opacity="0.12"/>
    <path d="M 1040 160 L 1718 250" stroke="var(--inverse-text)" stroke-width="2" stroke-opacity="0.08"/>
    <path d="M 1040 160 L 1718 92" stroke="var(--inverse-text)" stroke-width="2" stroke-opacity="0.12"/>
    <path d="M 1040 160 L 1718 250" stroke="var(--inverse-text)" stroke-width="2" stroke-opacity="0.08"/>
    <path d="M 1040 160 L 1718 92" stroke="var(--inverse-text)" stroke-width="2" stroke-opacity="0.12"/>
    <path d="M 1040 160 L 1718 250" stroke="var(--inverse-text)" stroke-width="2" stroke-opacity="0.08"/>
    <path d="M 1040 160 L 1718 92" stroke="var(--inverse-text)" stroke-width="2" stroke-opacity="0.12"/>
    <path d="M 1040 160 L 1718 250" stroke="var(--inverse-text)" stroke-width="2" stroke-opacity="0.08"/>
    <path d="M 1040 160 L 1718 92" stroke="var(--inverse-text)" stroke-width="2" stroke-opacity="0.12"/>
    <path d="M 1040 160 L 1718 250" stroke="var(--inverse-text)" stroke-width="2" stroke-opacity="0.08"/>
    <path id="ITEM_5_BG" d="M 870.0 200.0 L 1050.0 200.0 L 1062.0 322.0 L 858.0 322.0 Z" fill="var(--accent-3)" filter="url(#svg454d49c2-shadow)" stroke="var(--background)" stroke-width="2" fill-opacity="1.0"/>
    <path d="M 870 200 L 1050 200 L 1110 810 L 810 810 Z" fill="url(#svg454d49c2-universal-surface-sheen)" opacity="0.06"/>
    <path d="M 870 200 L 1050 200 L 1110 810 L 810 810 Z" fill="url(#svg454d49c2-universal-surface-sheen)" opacity="0.06"/>
    <path d="M 870 200 L 1050 200 L 1110 810 L 810 810 Z" fill="url(#svg454d49c2-universal-surface-sheen)" opacity="0.06"/>
    <path d="M 870 200 L 1050 200 L 1110 810 L 810 810 Z" fill="url(#svg454d49c2-universal-surface-sheen)" opacity="0.06"/>
    <path d="M 870 200 L 1050 200 L 1110 810 L 810 810 Z" fill="url(#svg454d49c2-universal-surface-sheen)" opacity="0.06"/>
    <path d="M 870 200 L 1050 200 L 1110 810 L 810 810 Z" fill="url(#svg454d49c2-universal-surface-sheen)" opacity="0.06"/>
    <path d="M 870 200 L 1050 200 L 1110 810 L 810 810 Z" fill="url(#svg454d49c2-universal-surface-sheen)" opacity="0.06"/>
    <path d="M 870 200 L 1050 200 L 1110 810 L 810 810 Z" fill="url(#svg454d49c2-universal-surface-sheen)" opacity="0.06"/>
    <path d="M 870 200 L 1050 200 L 1110 810 L 810 810 Z" fill="url(#svg454d49c2-universal-surface-sheen)" opacity="0.06"/>
    <path d="M 870 200 L 1050 200 L 1110 810 L 810 810 Z" fill="url(#svg454d49c2-universal-surface-sheen)" opacity="0.06"/>
    <path d="M 870 200 L 1050 200 L 1110 810 L 810 810 Z" fill="url(#svg454d49c2-universal-surface-sheen)" opacity="0.06"/>
    <path d="M 870 200 L 1050 200 L 1110 810 L 810 810 Z" fill="url(#svg454d49c2-universal-surface-sheen)" opacity="0.06"/>
    <path d="M 870 200 L 1050 200 L 1110 810 L 810 810 Z" fill="url(#svg454d49c2-universal-surface-sheen)" opacity="0.06"/>
    <path d="M 870 200 L 1050 200 L 1110 810 L 810 810 Z" fill="url(#svg454d49c2-universal-surface-sheen)" opacity="0.06"/>
    <path d="M 870 200 L 1050 200 L 1110 810 L 810 810 Z" fill="url(#svg454d49c2-universal-surface-sheen)" opacity="0.06"/>
    <path d="M 870 200 L 1050 200 L 1110 810 L 810 810 Z" fill="url(#svg454d49c2-universal-surface-sheen)" opacity="0.06"/>
    <path d="M 870 200 L 1050 200 L 1110 810 L 810 810 Z" fill="url(#svg454d49c2-universal-surface-sheen)" opacity="0.06"/>
    <path d="M 870 200 L 1050 200 L 1110 810 L 810 810 Z" fill="url(#svg454d49c2-universal-surface-sheen)" opacity="0.06"/>
    <path d="M 870 200 L 1050 200 L 1110 810 L 810 810 Z" fill="url(#svg454d49c2-universal-surface-sheen)" opacity="0.06"/>
    <path d="M 870 200 L 1050 200 L 1110 810 L 810 810 Z" fill="url(#svg454d49c2-universal-surface-sheen)" opacity="0.06"/>
    <path d="M 870 200 L 1050 200 L 1110 810 L 810 810 Z" fill="url(#svg454d49c2-universal-surface-sheen)" opacity="0.06"/>
    <path d="M 870 200 L 1050 200 L 1110 810 L 810 810 Z" fill="url(#svg454d49c2-universal-surface-sheen)" opacity="0.06"/>
    <path d="M 870 200 L 1050 200 L 1110 810 L 810 810 Z" fill="url(#svg454d49c2-universal-surface-sheen)" opacity="0.06"/>
    <path d="M 870 200 L 1050 200 L 1110 810 L 810 810 Z" fill="url(#svg454d49c2-universal-surface-sheen)" opacity="0.06"/>
    <path d="M 870 200 L 1050 200 L 1110 810 L 810 810 Z" fill="url(#svg454d49c2-universal-surface-sheen)" opacity="0.06"/>
    <path d="M 870 200 L 1050 200 L 1110 810 L 810 810 Z" fill="url(#svg454d49c2-universal-surface-sheen)" opacity="0.06"/>
    <path d="M 870 200 L 1050 200 L 1110 810 L 810 810 Z" fill="url(#svg454d49c2-universal-surface-sheen)" opacity="0.06"/>
    <path d="M 870 200 L 1050 200 L 1110 810 L 810 810 Z" fill="url(#svg454d49c2-universal-surface-sheen)" opacity="0.06"/>
    <path d="M 870 200 L 1050 200 L 1110 810 L 810 810 Z" fill="url(#svg454d49c2-universal-surface-sheen)" opacity="0.06"/>
    <line x1="890.0" y1="210.0" x2="878.0" y2="312.0" stroke="var(--background)" stroke-width="3" stroke-opacity="0.3"/>
    <circle cx="960" cy="261.0" r="43" fill="var(--icon-pad-bg)" stroke="none"/>
    <circle id="ITEM_5_RING" cx="960" cy="261.0" r="36" fill="none" stroke="var(--accent-2)" stroke-width="3" filter="url(#svg454d49c2-shadow)" stroke-dasharray="6 4"/>
    <circle id="ITEM_5_PAD" cx="960.00" cy="261.00" r="44.80" fill="var(--icon-pad-bg)" stroke="var(--primary-text)" stroke-width="2" opacity="0.9"/>
    <circle id="ITEM_5_PAD_INNER" cx="960.00" cy="261.00" r="34.94" fill="var(--accent-3)" fill-opacity="0.22"/>
    <g id="ITEM_5_ICON" transform="translate(932.0, 233.0)" data-icon-size="56">
      <g transform="translate(-11.891823008849553,-11.582584070796461) scale(2.4739115044247786)">
        <path d="M26.12 3.77001C26.44 6.30001 27.41 8.64001 28.86 10.58C29.57 11.54 30.01 12.68 30.01 13.87V25V26V27.28C30.01 28.78 28.79 30 27.29 30H19.64C17.64 30 16.0078 28.3867 16.0078 26.3867C16.0078 28.3867 14.4 30 12.4 30H4.73001C3.23001 30 2.01001 28.78 2.01001 27.28V25.99V25.01V14.07C2.01001 12.85 2.46001 11.69 3.20001 10.72C4.72001 8.74001 5.76001 6.34001 6.10001 3.75001C6.23001 2.76001 7.03001 2.01001 8.03001 2.01001H9.45001C13.8908 2.01001 18.6905 2.01001 22.37 2.01001C22.94 2.01001 23.6 2.01001 24.21 2.02001C25.19 2.02001 26 2.78001 26.12 3.77001Z" fill="#FF6723"/>
        <path d="M24.01 24H30V22H24.01V2H22.01V22H10.01V2.01H8.01V22H2V24H8.01" fill="#D3D3D3"/>
        <path d="M16.5299 2.01001H15.5199H9.43994C10.4799 2.01001 11.2199 2.53001 11.4899 3.30001L15 13.0078V28.8987C15 28.8987 16.0039 28.0469 16.0039 26.4609C16.0039 28.0391 17.0156 28.8789 17.0156 28.8789V13.0078L20.5299 3.30001C20.8099 2.52001 21.5399 2.01001 22.3699 2.01001C26.2412 2.01001 17.7181 2.01001 16.5299 2.01001Z" fill="#CA0B4A"/>
      </g>
    </g>
    <line id="ITEM_5_LINE" x1="1056.0" y1="261.0" x2="1136.0" y2="261.0" stroke="var(--accent-3)" stroke-width="3" stroke-dasharray="6 4" stroke-opacity="1.0"/>
    <circle id="ITEM_5_DOT" cx="1136.0" cy="261.0" r="5" fill="var(--accent-3)" fill-opacity="1.0"/>
    <rect id="ITEM_5_LABEL_BG" x="1146.0" y="205.0" width="420.0" height="207.0" rx="18" fill="var(--panel)" fill-opacity="0.88" stroke="var(--accent-5)" stroke-opacity="0.32" stroke-width="1.5"/>
    <text id="ITEM_5_HEAD" x="1166.0" y="221.0" font-weight="bold" font-size="34" fill="var(--accent-3)" text-anchor="start" data-bg-id="ITEM_5_LABEL_BG" fill-opacity="1.0" stroke="none" style="font-size: 25px; font-family: Inter, Segoe UI, Kalam, Roboto, Helvetica, Arial, sans-serif; font-weight: 700; letter-spacing:-0.4px;" data-final-font-size="25">
      <tspan x="1166.0" dy="30.62px">Public Safety Goal</tspan>
    </text>
    <rect id="ITEM_5_HEAD_FRAME" x="1166.0" y="221.0" width="220" height="50" fill="none"/>
    <text id="ITEM_5_BODY" x="1166.0" y="276.0" font-size="20" fill="var(--primary-text)" text-anchor="start" data-bg-id="ITEM_5_LABEL_BG" style="font-size: 26px; font-family: Inter, Segoe UI, Kalam, Roboto, Helvetica, Arial, sans-serif; font-weight: 400;" data-final-font-size="26">
      <tspan x="1166.0" dy="32.84px">Laws aim to prevent panic</tspan>
      <tspan x="1166.0" dy="29.90px">and resource diversion</tspan>
    </text>
    <rect id="ITEM_5_BODY_FRAME" x="1166" y="276.0" width="380" height="120" fill="none"/>
    <path id="ITEM_4_BG" d="M 858.0 322.0 L 1062.0 322.0 L 1074.0 444.0 L 846.0 444.0 Z" fill="var(--accent-2)" filter="url(#svg454d49c2-shadow)" stroke="var(--background)" stroke-width="2" fill-opacity="1.0"/>
    <line x1="878.0" y1="332.0" x2="866.0" y2="434.0" stroke="var(--background)" stroke-width="3" stroke-opacity="0.3"/>
    <circle cx="960" cy="383.0" r="43" fill="var(--icon-pad-bg)" stroke="none"/>
    <circle id="ITEM_4_RING" cx="960" cy="383.0" r="36" fill="none" stroke="var(--accent-1)" stroke-width="3" filter="url(#svg454d49c2-shadow)" stroke-dasharray="6 4"/>
    <circle id="ITEM_4_PAD" cx="960.00" cy="383.00" r="44.80" fill="var(--icon-pad-bg)" stroke="var(--primary-text)" stroke-width="2" opacity="0.9"/>
    <circle id="ITEM_4_PAD_INNER" cx="960.00" cy="383.00" r="34.94" fill="var(--accent-2)" fill-opacity="0.22"/>
    <g id="ITEM_4_ICON" transform="translate(932.0, 355.0)" data-icon-size="56">
      <g transform="translate(-13.415111111111106,-15.356444444444438) scale(3.451259259259259)" vector-effect="non-scaling-stroke" fill="#f1f5f9" fill-opacity="1.0" stroke="none">
        <path fill="#f1f5f9" d="M20.24 6.76c-1.84-1.85-4.59-2.23-6.82-1.17l-.96-.96a.996.996 0 0 0-1.41 0l-.08.09C10.83 3.75 10 3 9 3c-1.1 0-2 .9-2 2c0 .09 0 .18.03.26C6.42 5.61 6 6.25 6 7c0 .46.16.87.42 1.21A.97.97 0 0 0 6 9v1.35c-2.33.82-4 3.04-4 5.65c0 3.31 2.69 6 6 6s6-2.69 6-6a5.99 5.99 0 0 0-4-5.65V9a.97.97 0 0 0-.42-.79c.26-.34.42-.75.42-1.21c0-.09 0-.18-.03-.26c.18-.1.33-.24.46-.36C11.36 6.88 12 7.86 12 9v.08c.13.07.25.17.38.25c.19-.42.45-.83.79-1.16a4.01 4.01 0 0 1 5.66 0a4.01 4.01 0 0 1 0 5.66c-.8.8-1.83 1.17-2.9 1.17c.07.32.07.66.07 1s-.03.67-.07 1c1.57 0 3.12-.57 4.31-1.76a5.98 5.98 0 0 0 0-8.48M9 4c.55 0 1 .45 1 1c0 .33-.17.61-.42.79C9.22 5.31 8.65 5 8 5c0-.55.45-1 1-1M7.42 6.21c.36.48.93.79 1.58.79c0 .55-.45 1-1 1s-1-.45-1-1c0-.33.17-.61.42-.79M12 16c0 2.21-1.79 4-4 4s-4-1.79-4-4s1.79-4 4-4s4 1.79 4 4" vector-effect="non-scaling-stroke" stroke="none"/>
      </g>
    </g>
    <line id="ITEM_4_LINE" x1="852.0" y1="383.0" x2="772.0" y2="383.0" stroke="var(--accent-2)" stroke-width="3" stroke-dasharray="6 4" stroke-opacity="1.0"/>
    <circle id="ITEM_4_DOT" cx="772.0" cy="383.0" r="5" fill="var(--accent-2)" fill-opacity="1.0"/>
    <rect id="ITEM_4_LABEL_BG" x="342.0" y="327.0" width="420.0" height="207.0" rx="18" fill="var(--panel)" fill-opacity="0.88" stroke="var(--accent-4)" stroke-opacity="0.32" stroke-width="1.5"/>
    <text id="ITEM_4_HEAD" x="742.0" y="343.0" font-weight="bold" font-size="34" fill="var(--accent-2)" text-anchor="end" data-bg-id="ITEM_4_LABEL_BG" fill-opacity="1.0" stroke="none" style="font-size: 26px; font-family: Inter, Segoe UI, Kalam, Roboto, Helvetica, Arial, sans-serif; font-weight: 700; letter-spacing:-0.4px;" data-final-font-size="26">
      <tspan x="742.0" dy="30.85px">Punitive Measures</tspan>
    </text>
    <rect id="ITEM_4_HEAD_FRAME" x="522.0" y="343.0" width="220" height="50" fill="none"/>
    <text id="ITEM_4_BODY" x="742.0" y="398.0" font-size="20" fill="var(--primary-text)" text-anchor="end" data-bg-id="ITEM_4_LABEL_BG" style="font-size: 26px; font-family: Inter, Segoe UI, Kalam, Roboto, Helvetica, Arial, sans-serif; font-weight: 400;" data-final-font-size="26">
      <tspan x="742.0" dy="32.84px">Violators face potential fines</tspan>
      <tspan x="742.0" dy="29.90px">and imprisonment sentences</tspan>
    </text>
    <rect id="ITEM_4_BODY_FRAME" x="362" y="398.0" width="380" height="120" fill="none"/>
    <path id="ITEM_3_BG" d="M 846.0 444.0 L 1074.0 444.0 L 1086.0 566.0 L 834.0 566.0 Z" fill="var(--accent-1)" filter="url(#svg454d49c2-shadow)" stroke="var(--background)" stroke-width="2" fill-opacity="1.0"/>
    <line x1="866.0" y1="454.0" x2="854.0" y2="556.0" stroke="var(--background)" stroke-width="3" stroke-opacity="0.3"/>
    <circle cx="960" cy="505.0" r="43" fill="var(--icon-pad-bg)" stroke="none"/>
    <circle id="ITEM_3_RING" cx="960" cy="505.0" r="36" fill="none" stroke="var(--accent-5)" stroke-width="3" filter="url(#svg454d49c2-shadow)" stroke-dasharray="6 4"/>
    <circle id="ITEM_3_PAD" cx="960.00" cy="505.00" r="44.80" fill="var(--icon-pad-bg)" stroke="var(--primary-text)" stroke-width="2" opacity="0.9"/>
    <circle id="ITEM_3_PAD_INNER" cx="960.00" cy="505.00" r="34.94" fill="var(--accent-1)" fill-opacity="0.22"/>
    <g id="ITEM_3_ICON" transform="translate(932.0, 477.0)" data-icon-size="56">
      <g transform="translate(-11.935999999999995,-19.423999999999992) scale(2.4959999999999996)">
        <path d="M4 21H28V27H4V21Z" fill="black"/>
        <path d="M21.79 11.01C22.53 11.01 23.21 11.43 23.54 12.09L23.9921 12.9942L24.9327 15.9971L26.995 19H28.0407C29.1203 19 30 19.8789 30 20.9575L29.6141 22.4768L30 23.996V25.0424C30 26.1211 29.1203 27 28.0407 27H27.469C27.4895 26.8362 27.5 26.6693 27.5 26.5C27.5 24.2909 25.7091 22.5 23.5 22.5C21.2909 22.5 19.5 24.2909 19.5 26.5C19.5 26.6693 19.5105 26.8362 19.5309 27H12.4691C12.4895 26.8362 12.5 26.6693 12.5 26.5C12.5 24.2909 10.7091 22.5 8.5 22.5C6.29086 22.5 4.5 24.2909 4.5 26.5C4.5 26.6693 4.51052 26.8362 4.53095 27H3.9593C2.87968 27 2 26.1211 2 25.0424V24.0037L3.31953 22.5056L2 21.0075C2 19.8589 2.87968 19.01 3.9593 19.01L7.0007 19.0086L9.19709 16.0975L10.0048 13.0004L10.46 12.09C10.79 11.43 11.47 11.01 12.21 11.01H17H21.79Z" fill="#636363"/>
        <path d="M12 26.5C12 28.433 10.433 30 8.5 30C6.567 30 5 28.433 5 26.5C5 24.567 6.567 23 8.5 23C10.433 23 12 24.567 12 26.5ZM27 26.5C27 28.433 25.433 30 23.5 30C21.567 30 20 28.433 20 26.5C20 24.567 21.567 23 23.5 23C25.433 23 27 24.567 27 26.5Z" fill="#321B41"/>
        <path d="M16 10H18V11H16V10Z" fill="#D3D3D3"/>
        <path d="M8 22.5309V19H24V22.5309C23.8362 22.5105 23.6693 22.5 23.5 22.5C21.2909 22.5 19.5 24.2909 19.5 26.5C19.5 26.6693 19.5105 26.8362 19.5309 27H12.4691C12.4895 26.8362 12.5 26.6693 12.5 26.5C12.5 24.2909 10.7091 22.5 8.5 22.5C8.33067 22.5 8.1638 22.5105 8 22.5309Z" fill="#D3D3D3"/>
        <path d="M10 26.5C10 27.3284 9.32843 28 8.5 28C7.67157 28 7 27.3284 7 26.5C7 25.6716 7.67157 25 8.5 25C9.32843 25 10 25.6716 10 26.5Z" fill="#D3D3D3"/>
        <path d="M25 26.5C25 27.3284 24.3284 28 23.5 28C22.6716 28 22 27.3284 22 26.5C22 25.6716 22.6716 25 23.5 25C24.3284 25 25 25.6716 25 26.5Z" fill="#D3D3D3"/>
        <path d="M4 22C4 21.45 3.55 21 3 21H2V23.34V24H3C3.55 24 4 23.55 4 23V22Z" fill="#FFF478"/>
        <path fill-rule="evenodd" clip-rule="evenodd" d="M16 9C16 8.45 16.45 8 17 8C17.55 8 18 8.45 18 9V10H16V9ZM28 22.57C27.96 21.71 28.65 21 29.5 21H30V22V24H29.55C28.74 24 28.04 23.38 28 22.57Z" fill="#F92F60"/>
        <path d="M15.02 19H7L10 13H15.02C15.56 13 16 13.44 16 13.98V18.02C16 18.56 15.56 19 15.02 19ZM18.98 19H27L24 13H18.98C18.44 13 18 13.44 18 13.98V18.02C18 18.56 18.44 19 18.98 19Z" fill="#26C9FC"/>
        <path d="M11.13 20H11.52C11.79 20 12 19.78 12 19.52V17.48C12 17.21 11.78 17 11.52 17H11.13C10.51 17 10 17.51 10 18.13V18.87C10 19.5 10.51 20 11.13 20Z" fill="#D3D3D3"/>
        <path d="M11.13 20H11.52C11.79 20 12 19.78 12 19.52V17.48C12 17.21 11.78 17 11.52 17H11.13C10.51 17 10 17.51 10 18.13V18.87C10 19.5 10.51 20 11.13 20Z" fill="#9B9B9B"/>
      </g>
    </g>
    <line id="ITEM_3_LINE" x1="1080.0" y1="505.0" x2="1160.0" y2="505.0" stroke="var(--accent-1)" stroke-width="3" stroke-dasharray="6 4" stroke-opacity="1.0"/>
    <circle id="ITEM_3_DOT" cx="1160.0" cy="505.0" r="5" fill="var(--accent-1)" fill-opacity="1.0"/>
    <rect id="ITEM_3_LABEL_BG" x="1170.0" y="449.0" width="420.0" height="207.0" rx="18" fill="var(--panel)" fill-opacity="0.88" stroke="var(--accent-3)" stroke-opacity="0.32" stroke-width="1.5"/>
    <text id="ITEM_3_HEAD" x="1190.0" y="465.0" font-weight="bold" font-size="34" fill="var(--accent-1)" text-anchor="start" data-bg-id="ITEM_3_LABEL_BG" fill-opacity="1.0" stroke="none" style="font-size: 26px; font-family: Inter, Segoe UI, Kalam, Roboto, Helvetica, Arial, sans-serif; font-weight: 700; letter-spacing:-0.4px;" data-final-font-size="26">
      <tspan x="1190.0" dy="30.85px">Enforcement Scope</tspan>
    </text>
    <rect id="ITEM_3_HEAD_FRAME" x="1190.0" y="465.0" width="220" height="50" fill="none"/>
    <text id="ITEM_3_BODY" x="1190.0" y="520.0" font-size="20" fill="var(--primary-text)" text-anchor="start" data-bg-id="ITEM_3_LABEL_BG" style="font-size: 26px; font-family: Inter, Segoe UI, Kalam, Roboto, Helvetica, Arial, sans-serif; font-weight: 400;" data-final-font-size="26">
      <tspan x="1190.0" dy="26.86px">Authorities pursue cases</tspan>
      <tspan x="1190.0" dy="29.90px">involving health crises</tspan>
      <tspan x="1190.0" dy="29.90px">and scams</tspan>
    </text>
    <rect id="ITEM_3_BODY_FRAME" x="1190" y="520.0" width="380" height="120" fill="none"/>
    <path id="ITEM_2_BG" d="M 834.0 566.0 L 1086.0 566.0 L 1098.0 688.0 L 822.0 688.0 Z" fill="var(--accent-6)" filter="url(#svg454d49c2-shadow)" stroke="var(--background)" stroke-width="2" fill-opacity="1.0"/>
    <line x1="854.0" y1="576.0" x2="842.0" y2="678.0" stroke="var(--background)" stroke-width="3" stroke-opacity="0.3"/>
    <circle cx="960" cy="627.0" r="43" fill="var(--icon-pad-bg)" stroke="none"/>
    <circle id="ITEM_2_RING" cx="960" cy="627.0" r="36" fill="none" stroke="var(--accent-4)" stroke-width="3" filter="url(#svg454d49c2-shadow)" stroke-dasharray="6 4"/>
    <circle id="ITEM_2_PAD" cx="960.00" cy="627.00" r="44.80" fill="var(--icon-pad-bg)" stroke="var(--primary-text)" stroke-width="2" opacity="0.9"/>
    <circle id="ITEM_2_PAD_INNER" cx="960.00" cy="627.00" r="34.94" fill="var(--accent-6)" fill-opacity="0.22"/>
    <g id="ITEM_2_ICON" transform="translate(932.0, 599.0)" data-icon-size="56">
      <g transform="translate(-11.935999999999995,-11.311999999999992) scale(2.4959999999999996)">
        <path d="M25.0642 23.4047L23.9155 20.598L22.2011 21.2996L23.3511 24.1097L23.3525 24.113C23.5183 24.5137 23.3281 24.9545 22.9426 25.1096L18.0368 27.1219L18.0342 27.123C17.6335 27.2888 17.1927 27.0987 17.0376 26.7132L15.8855 23.898L14.1711 24.5997L15.3202 27.4074C15.8659 28.7594 17.403 29.3881 18.741 28.8353L18.7425 28.8347L23.6372 26.8268C24.9889 26.281 25.6173 24.7444 25.065 23.4066L25.0642 23.4047ZM8 23.5L9.70824 26.7789C10.3282 27.4289 10.2982 28.4589 9.63824 29.0689C8.98824 29.6789 7.95824 29.6489 7.34824 28.9989L2.43824 23.7889C1.82824 23.1389 1.85824 22.1089 2.50824 21.4989C3.15824 20.8889 4.18824 20.9189 4.79824 21.5689L8 23.5Z" fill="#FFB02E"/>
        <path d="M29.2283 15.0788L17.6783 2.82884C16.4083 1.47884 14.1783 1.82887 13.3883 3.50887L4.79834 21.5689L9.76834 26.8389L28.3083 19.3288C30.0183 18.6388 30.4983 16.4288 29.2283 15.0788Z" fill="#F9C23C"/>
      </g>
    </g>
    <line id="ITEM_2_LINE" x1="828.0" y1="627.0" x2="748.0" y2="627.0" stroke="var(--accent-6)" stroke-width="3" stroke-dasharray="6 4" stroke-opacity="1.0"/>
    <circle id="ITEM_2_DOT" cx="748.0" cy="627.0" r="5" fill="var(--accent-6)" fill-opacity="1.0"/>
    <rect id="ITEM_2_LABEL_BG" x="318.0" y="571.0" width="420.0" height="207.0" rx="18" fill="var(--panel)" fill-opacity="0.88" stroke="var(--accent-2)" stroke-opacity="0.32" stroke-width="1.5"/>
    <text id="ITEM_2_HEAD" x="718.0" y="587.0" font-weight="bold" font-size="34" fill="var(--accent-6)" text-anchor="end" data-bg-id="ITEM_2_LABEL_BG" fill-opacity="1.0" stroke="none" style="font-size: 25px; font-family: Inter, Segoe UI, Kalam, Roboto, Helvetica, Arial, sans-serif; font-weight: 700; letter-spacing:-0.4px;" data-final-font-size="25">
      <tspan x="718.0" dy="30.62px">Targeted Behaviors</tspan>
    </text>
    <rect id="ITEM_2_HEAD_FRAME" x="498.0" y="587.0" width="220" height="50" fill="none"/>
    <text id="ITEM_2_BODY" x="718.0" y="642.0" font-size="20" fill="var(--primary-text)" text-anchor="end" data-bg-id="ITEM_2_LABEL_BG" style="font-size: 26px; font-family: Inter, Segoe UI, Kalam, Roboto, Helvetica, Arial, sans-serif; font-weight: 400;" data-final-font-size="26">
      <tspan x="718.0" dy="26.86px">Provisions target claims</tspan>
      <tspan x="718.0" dy="29.90px">causing public alarm</tspan>
      <tspan x="718.0" dy="29.90px">or anxiety</tspan>
    </text>
    <rect id="ITEM_2_BODY_FRAME" x="338" y="642.0" width="380" height="120" fill="none"/>
    <path id="ITEM_1_BG" d="M 822.0 688.0 L 1098.0 688.0 L 1110.0 810.0 L 810.0 810.0 Z" fill="var(--accent-5)" filter="url(#svg454d49c2-shadow)" stroke="var(--background)" stroke-width="2" fill-opacity="1.0"/>
    <line x1="842.0" y1="698.0" x2="830.0" y2="800.0" stroke="var(--background)" stroke-width="3" stroke-opacity="0.3"/>
    <circle cx="960" cy="749.0" r="43" fill="var(--icon-pad-bg)" stroke="none"/>
    <circle id="ITEM_1_RING" cx="960" cy="749.0" r="36" fill="none" stroke="var(--accent-6)" stroke-width="3" filter="url(#svg454d49c2-shadow)" stroke-dasharray="6 4"/>
    <circle id="ITEM_1_PAD" cx="960.00" cy="749.00" r="44.80" fill="var(--icon-pad-bg)" stroke="var(--primary-text)" stroke-width="2" opacity="0.9"/>
    <circle id="ITEM_1_PAD_INNER" cx="960.00" cy="749.00" r="34.94" fill="var(--accent-5)" fill-opacity="0.22"/>
    <g id="ITEM_1_ICON" transform="translate(932.0, 721.0)" data-icon-size="56">
      <g transform="translate(-9.905355932203385,-9.905355932203385) scale(3.1587796610169487)" vector-effect="non-scaling-stroke" stroke-width="2.38" stroke-linecap="round" stroke-linejoin="round" stroke-opacity="1.0">
        <path d="m14 13-8.381 8.38a1 1 0 0 1-3.001-3l8.384-8.381" vector-effect="non-scaling-stroke" fill="none" stroke="#f1f5f9"/>
        <path d="m16 16 6-6" vector-effect="non-scaling-stroke" fill="none" stroke="#f1f5f9"/>
        <path d="m21.5 10.5-8-8" vector-effect="non-scaling-stroke" fill="none" stroke="#f1f5f9"/>
        <path d="m8 8 6-6" vector-effect="non-scaling-stroke" fill="none" stroke="#f1f5f9"/>
        <path d="m8.5 7.5 8 8" vector-effect="non-scaling-stroke" fill="none" stroke="#f1f5f9"/>
      </g>
    </g>
    <line id="ITEM_1_LINE" x1="1104.0" y1="749.0" x2="1184.0" y2="749.0" stroke="var(--accent-5)" stroke-width="3" stroke-dasharray="6 4" stroke-opacity="1.0"/>
    <circle id="ITEM_1_DOT" cx="1184.0" cy="749.0" r="5" fill="var(--accent-5)" fill-opacity="1.0"/>
    <rect id="ITEM_1_LABEL_BG" x="1194.0" y="693.0" width="420.0" height="207.0" rx="18" fill="var(--panel)" fill-opacity="0.88" stroke="var(--accent-1)" stroke-opacity="0.32" stroke-width="1.5"/>
    <text id="ITEM_1_HEAD" x="1214.0" y="709.0" font-weight="bold" font-size="34" fill="var(--accent-5)" text-anchor="start" data-bg-id="ITEM_1_LABEL_BG" fill-opacity="1.0" stroke="none" style="font-size: 28px; font-family: Inter, Segoe UI, Kalam, Roboto, Helvetica, Arial, sans-serif; font-weight: 700; letter-spacing:-0.4px;" data-final-font-size="28">
      <tspan x="1214.0" dy="31.30px">Legal Foundation</tspan>
    </text>
    <rect id="ITEM_1_HEAD_FRAME" x="1214.0" y="709.0" width="220" height="50" fill="none"/>
    <text id="ITEM_1_BODY" x="1214.0" y="764.0" font-size="20" fill="var(--primary-text)" text-anchor="start" data-bg-id="ITEM_1_LABEL_BG" style="font-size: 26px; font-family: Inter, Segoe UI, Kalam, Roboto, Helvetica, Arial, sans-serif; font-weight: 400;" data-final-font-size="26">
      <tspan x="1214.0" dy="32.84px">Section 34 addresses false</tspan>
      <tspan x="1214.0" dy="29.90px">reports and public mischief</tspan>
    </text>
    <rect id="ITEM_1_BODY_FRAME" x="1214" y="764.0" width="380" height="120" fill="none"/>
    <rect x="790.0" y="810.0" width="340" height="40" fill="var(--muted-text)" rx="4"/>
    <path d="M 710 850.0 Q 960 820.0 1210 850.0 L 1260 980 L 660 980 Z" fill="var(--panel)"/>
  </g>
</svg>
