<?xml version='1.0' encoding='utf-8'?>
<svg xmlns="http://www.w3.org/2000/svg" width="1920" height="1080" viewBox="0 0 1920 1080" data-theme="dark">
  <style>
        @font-face {
            font-family: 'Inter';
            src: url('assets/fonts/Inter-Regular.ttf') format('truetype');
            font-weight: 400;
            font-style: normal;
            font-display: swap;
        }
        @font-face {
            font-family: 'Inter';
            src: url('assets/fonts/Inter-Bold.ttf') format('truetype');
            font-weight: 600;
            font-style: normal;
            font-display: swap;
        }
        @font-face {
            font-family: 'Inter';
            src: url('assets/fonts/Inter-Bold.ttf') format('truetype');
            font-weight: 800;
            font-style: normal;
            font-display: swap;
        }
        
:root {
    --background: #0f172a;
    --panel: #1e293b;
    --primary-text: #f1f5f9;
    --muted-text: #94a3b8;
    --inverse-text: #0f172a;
    --border: #334155;
    --shadow-color: #000000;
    --icon-pad-bg: #1e293b;
    --art-glow: #7dd3fc;
    --art-glow-opacity: 0.18;
    --art-sheen: #ffffff;
    --art-sheen-opacity: 0.18;
    --art-shadow: #000000;
    --art-shadow-opacity: 0.28;
    --art-muted-line: #64748b;
    --art-panel-tint: #1e293b;
    --font-family: 'Inter', 'Segoe UI', 'Kalam', Roboto, Helvetica, Arial, sans-serif;
    --radius-xl: 16px;
    --font-family-headline: 'Inter', 'Segoe UI', 'Kalam', Roboto, Helvetica, Arial, sans-serif;
    --font-family-body: 'Inter', 'Segoe UI', 'Kalam', Roboto, Helvetica, Arial, sans-serif;
    --font-heading: 'Inter', 'Segoe UI', 'Kalam', Roboto, Helvetica, Arial, sans-serif;
    --font-body: 'Inter', 'Segoe UI', 'Kalam', Roboto, Helvetica, Arial, sans-serif;
    --font-size-h1: 56px;
    --font-size-h2: 40px;
    --font-size-h3: 28px;
    --font-size-body: 24px;
    --font-size-caption: 18px;
    --secondary-text: var(--muted-text);
    --panel-border: var(--border);
    --font-weight-normal: 400;
    --font-weight-medium: 500;
    --font-weight-semibold: 600;
    --font-weight-bold: 700;
    --spacing-gutter-pct: 0.07;
    --spacing-top-pct: 0.15;
    --spacing-bottom-pct: 0.07;
    --spacing-title-y-pct: 0.055;
    --accent-1: #22d3ee;
    --accent-2: #f472b6;
    --accent-3: #facc15;
    --accent-4: #a3e635;
    --accent-5: #fb923c;
    --accent-6: #c084fc;
}
:root[data-theme="dark"] {
    --background: #0f172a;
    --panel: #1e293b;
    --primary-text: #f1f5f9;
    --muted-text: #94a3b8;
    --inverse-text: #0f172a;
    --border: #334155;
    --shadow-color: #000000;
    --icon-pad-bg: #1e293b;
    --art-glow: #7dd3fc;
    --art-glow-opacity: 0.18;
    --art-sheen: #ffffff;
    --art-sheen-opacity: 0.18;
    --art-shadow: #000000;
    --art-shadow-opacity: 0.28;
    --art-muted-line: #64748b;
    --art-panel-tint: #1e293b;
    --accent-1: #22d3ee;
    --accent-2: #f472b6;
    --accent-3: #facc15;
    --accent-4: #a3e635;
    --accent-5: #fb923c;
    --accent-6: #c084fc;
}
:root[data-theme="light"] {
    --background: #f8fafc;
    --panel: #ffffff;
    --primary-text: #0f172a;
    --muted-text: #64748b;
    --inverse-text: #ffffff;
    --border: #e2e8f0;
    --shadow-color: #000000;
    --icon-pad-bg: #1e293b;
    --art-glow: #0891b2;
    --art-glow-opacity: 0.10;
    --art-sheen: #ffffff;
    --art-sheen-opacity: 0.34;
    --art-shadow: #0f172a;
    --art-shadow-opacity: 0.14;
    --art-muted-line: #94a3b8;
    --art-panel-tint: #f1f5f9;
    --accent-1: #0891b2;
    --accent-2: #db2777;
    --accent-3: #ca8a04;
    --accent-4: #65a30d;
    --accent-5: #ea580c;
    --accent-6: #9333ea;
}</style>
  <rect x="0" y="0" width="1.92E+3" height="1.08E+3" fill="#252a34" stroke="none" id="programmatic_background"/>
  <line id="HEADER_DECOR" x1="960.0" x2="1080.0" y1="95.0" y2="95.0" stroke="var(--accent-1)" stroke-width="6" stroke-linecap="round"/>
  <defs>
    <pattern id="svg19066fe7-napkin-hatch" patternUnits="userSpaceOnUse" width="12" height="12">
      <path d="M -3 12 L 12 -3 M 0 15 L 15 0" fill="none" stroke="var(--primary-text)" stroke-width="1" stroke-opacity="0.05"/>
    </pattern>
    <filter id="svg19066fe7-shadow" x="-30%" y="-30%" width="160%" height="160%">
      <feDropShadow dx="0" dy="4" stdDeviation="5" flood-color="#000000" flood-opacity="0.15"/>
    </filter>
    <filter id="svg19066fe7-text-glow" x="-20%" y="-20%" width="140%" height="140%">
      <feDropShadow dx="0" dy="0" stdDeviation="3" flood-color="#000000" flood-opacity="0.8"/>
    </filter>
    <radialGradient id="svg19066fe7-universal-edge-vignette" cx="50%" cy="50%" r="72%">
      <stop offset="0%" stop-color="var(--background)" stop-opacity="0"/>
      <stop offset="72%" stop-color="var(--background)" stop-opacity="0.12"/>
      <stop offset="100%" stop-color="var(--primary-text)" stop-opacity="0.08"/>
    </radialGradient>
    <linearGradient id="svg19066fe7-universal-surface-sheen" x1="0%" y1="0%" x2="100%" y2="100%">
      <stop offset="0%" stop-color="var(--art-sheen)" stop-opacity="var(--art-sheen-opacity)"/>
      <stop offset="46%" stop-color="var(--art-sheen)" stop-opacity="0.035"/>
      <stop offset="100%" stop-color="var(--art-panel-tint)" stop-opacity="0.14"/>
    </linearGradient>
    <radialGradient id="svg19066fe7-universal-icon-aura" cx="50%" cy="42%" r="64%">
      <stop offset="0%" stop-color="var(--art-glow)" stop-opacity="var(--art-glow-opacity)"/>
      <stop offset="100%" stop-color="var(--background)" stop-opacity="0"/>
    </radialGradient>
    <linearGradient id="svg19066fe7-earth-core-horizon" x1="0%" y1="0%" x2="0%" y2="100%">
      <stop offset="0%" stop-color="var(--accent-2)" stop-opacity="0.12"/>
      <stop offset="100%" stop-color="var(--background)" stop-opacity="0"/>
    </linearGradient>
    <marker id="svg19066fe7-arrowhead" markerWidth="10" markerHeight="7" refX="9" refY="3.5" orient="auto" markerUnits="strokeWidth">
      <polygon points="0 0, 10 3.5, 0 7" fill="var(--muted-text)" opacity="0.6"/>
    </marker>
  </defs>
  <rect width="100%" height="100%" fill="var(--background)" id="CANVAS_BG"/>
  <rect width="100%" height="100%" fill="url(#svg19066fe7-napkin-hatch)"/>
  <rect id="UNIVERSAL_EDGE_VIGNETTE" width="100%" height="100%" fill="url(#svg19066fe7-universal-edge-vignette)" opacity="0.62"/>
  <rect id="TITLE_FRAME" x="134" y="30" width="1652" height="70" fill="none"/>
  <text id="TITLE" x="960.0" y="59" font-size="48" font-weight="700" fill="#f1f5f9" text-anchor="middle" style="font-size: 60px; font-family: Inter, Segoe UI, Kalam, Roboto, Helvetica, Arial, sans-serif; font-weight: 700; letter-spacing:-1.2px;" data-final-font-size="60">
    <tspan x="960.0" dy="68.00px">Roots of Guinea's Monetary Break</tspan>
  </text>
  <g id="DIAGRAM_MAIN">
    <rect id="EARTH_CORE_HORIZON" x="0" y="120" width="1920" height="380" fill="url(#svg19066fe7-earth-core-horizon)" opacity="0.80"/>
    <path id="EARTH_CORE_SURFACE_GLINT" d="M 236 286 C 622 236 1298 236 1684 286" fill="none" stroke="var(--inverse-text)" stroke-width="2" stroke-opacity="0.12" stroke-linecap="round"/>
    <!-- Layer 1 -->
    <circle id="ITEM_1_BG_RING" cx="960" cy="2200" r="1950" fill="var(--accent-2)" fill-opacity="0.18" stroke="var(--accent-2)" stroke-width="2" stroke-dasharray="10 10" stroke-opacity="1.0"/>
    <!-- Layer 2 -->
    <circle id="ITEM_2_BG_RING" cx="960" cy="2200" r="1800" fill="var(--accent-3)" fill-opacity="0.26" stroke="var(--accent-3)" stroke-width="2" stroke-dasharray="10 10" stroke-opacity="1.0"/>
    <!-- Layer 3 -->
    <circle id="ITEM_3_BG_RING" cx="960" cy="2200" r="1650" fill="var(--accent-4)" fill-opacity="0.3400000000000001" stroke="var(--accent-4)" stroke-width="2" stroke-dasharray="10 10" stroke-opacity="1.0"/>
    <!-- Layer 4 -->
    <circle id="ITEM_4_BG_RING" cx="960" cy="2200" r="1500" fill="var(--accent-5)" fill-opacity="0.42000000000000004" stroke="var(--accent-5)" stroke-width="2" stroke-dasharray="10 10" stroke-opacity="1.0"/>
    <!-- Layer 5 -->
    <circle id="ITEM_5_BG_RING" cx="960" cy="2200" r="1350" fill="var(--accent-6)" fill-opacity="0.5" stroke="var(--accent-6)" stroke-width="2" stroke-dasharray="10 10" stroke-opacity="1.0"/>
    <!-- Central Axis Line -->
    <line x1="960" y1="200" x2="960" y2="1050" stroke="var(--primary-text)" stroke-width="4" stroke-dasharray="16 12" stroke-linecap="round" opacity="0.3"/>
    <circle cx="960" cy="250.0" r="64" fill="url(#svg19066fe7-universal-icon-aura)" opacity="0.82"/>
    <g transform="translate(960, 250.0)">
      <circle id="ITEM_1_STROKE" cx="0" cy="0" r="37" fill="transparent" stroke="var(--accent-2)" stroke-width="3" stroke-opacity="1.0"/>
      <circle id="ITEM_1_BORDER" cx="0" cy="0" r="45" fill="transparent" stroke="var(--accent-2)" stroke-width="3" stroke-dasharray="6 4" stroke-opacity="1.0"/>
      <circle id="ITEM_1_PAD" cx="0.00" cy="0.00" r="40.00" fill="var(--icon-pad-bg)" stroke="var(--primary-text)" stroke-width="2" opacity="0.9"/>
      <circle id="ITEM_1_PAD_INNER" cx="0.00" cy="0.00" r="31.20" fill="var(--accent-2)" fill-opacity="0.22"/>
      <g id="ITEM_1_ICON" transform="translate(-25, -25)" data-icon-size="50" stroke-dasharray="6 4">
        <g transform="translate(-8.844067796610172,-14.396610169491531) scale(2.820338983050848)" vector-effect="non-scaling-stroke" stroke-width="2.31" stroke-linecap="round" stroke-linejoin="round" stroke-opacity="1.0">
          <path d="M13 18H4a2 2 0 0 1-2-2V8a2 2 0 0 1 2-2h16a2 2 0 0 1 2 2v5" vector-effect="non-scaling-stroke" fill="none" stroke="#f1f5f9"/>
          <path d="m17 17 5 5" vector-effect="non-scaling-stroke" fill="none" stroke="#f1f5f9"/>
          <path d="M18 12h.01" vector-effect="non-scaling-stroke" fill="none" stroke="#f1f5f9"/>
          <path d="m22 17-5 5" vector-effect="non-scaling-stroke" fill="none" stroke="#f1f5f9"/>
          <path d="M6 12h.01" vector-effect="non-scaling-stroke" fill="none" stroke="#f1f5f9"/>
          <circle cx="12" cy="12" r="2" vector-effect="non-scaling-stroke" fill="none" stroke="#f1f5f9"/>
        </g>
      </g>
    </g>
    <!-- Connector -->
    <line id="ITEM_1_CONN" x1="920" y1="250.0" x2="670.0" y2="250.0" stroke="var(--accent-2)" stroke-width="2" stroke-dasharray="4 4" opacity="0.6" stroke-opacity="1.0"/>
    <circle cx="670.0" cy="250.0" r="5" fill="var(--accent-1)"/>
    <!-- Rigid text block -->
    <!-- _FRAME guarantees text wraps neatly within text_w -->
    <rect id="ITEM_1_TEXT_BG" x="32.0" y="159.0" width="636.0" height="207.0" rx="22" fill="var(--panel)" fill-opacity="0.94" stroke="var(--primary-text)" stroke-opacity="0.12" stroke-width="1.5"/>
    <rect x="32.0" y="159.0" width="636.0" height="207.0" rx="16" fill="url(#svg19066fe7-universal-surface-sheen)" opacity="0.76"/>
    <rect id="ITEM_1_HEAD_FRAME" x="50.0" y="175.0" width="600" height="45" fill="none"/>
    <text id="ITEM_1_HEAD" data-bg-id="ITEM_1_TEXT_BG" x="650.0" y="175.0" font-weight="bold" font-size="28" fill="var(--accent-2)" text-anchor="end" fill-opacity="1.0" stroke="none" style="font-size: 30px; font-family: Inter, Segoe UI, Kalam, Roboto, Helvetica, Arial, sans-serif; font-weight: 700; letter-spacing:-0.4px;" data-final-font-size="30">
      <tspan x="650.0" dy="30.75px">Political Sovereignty</tspan>
    </text>
    <rect id="ITEM_1_BODY_FRAME" x="50.0" y="265.0" width="600" height="85" fill="none"/>
    <text id="ITEM_1_BODY" data-bg-id="ITEM_1_TEXT_BG" x="650.0" y="265.0" font-size="20" fill="var(--primary-text)" text-anchor="end" style="font-size: 26px; font-family: Inter, Segoe UI, Kalam, Roboto, Helvetica, Arial, sans-serif; font-weight: 400;" data-final-font-size="26">
      <tspan x="650.0" dy="25.84px">Guinea rejects the proposed French Community</tspan>
      <tspan x="650.0" dy="29.90px">for immediate independence</tspan>
    </text>
    <circle cx="960" cy="425.0" r="64" fill="url(#svg19066fe7-universal-icon-aura)" opacity="0.82"/>
    <g transform="translate(960, 425.0)">
      <circle id="ITEM_2_STROKE" cx="0" cy="0" r="37" fill="transparent" stroke="var(--accent-3)" stroke-width="3" stroke-opacity="1.0"/>
      <circle id="ITEM_2_BORDER" cx="0" cy="0" r="45" fill="transparent" stroke="var(--accent-3)" stroke-width="3" stroke-dasharray="6 4" stroke-opacity="1.0"/>
      <circle id="ITEM_2_PAD" cx="0.00" cy="0.00" r="40.00" fill="var(--icon-pad-bg)" stroke="var(--primary-text)" stroke-width="2" opacity="0.9"/>
      <circle id="ITEM_2_PAD_INNER" cx="0.00" cy="0.00" r="31.20" fill="var(--accent-3)" fill-opacity="0.22"/>
      <g id="ITEM_2_ICON" transform="translate(-25, -25)" data-icon-size="50" stroke-dasharray="6 4">
        <g transform="translate(-11.977777777777781,-11.977777777777781) scale(3.081481481481482)" vector-effect="non-scaling-stroke" stroke-width="2.31" stroke-linecap="round" stroke-linejoin="round" stroke-opacity="1.0">
          <rect width="18" height="18" x="3" y="3" rx="2" vector-effect="non-scaling-stroke" fill="none" stroke="#f1f5f9"/>
          <circle cx="7.5" cy="7.5" r=".5" fill="#f1f5f9" vector-effect="non-scaling-stroke" stroke="#f1f5f9"/>
          <path d="m7.9 7.9 2.7 2.7" vector-effect="non-scaling-stroke" fill="none" stroke="#f1f5f9"/>
          <circle cx="16.5" cy="7.5" r=".5" fill="#f1f5f9" vector-effect="non-scaling-stroke" stroke="#f1f5f9"/>
          <path d="m13.4 10.6 2.7-2.7" vector-effect="non-scaling-stroke" fill="none" stroke="#f1f5f9"/>
          <circle cx="7.5" cy="16.5" r=".5" fill="#f1f5f9" vector-effect="non-scaling-stroke" stroke="#f1f5f9"/>
          <path d="m7.9 16.1 2.7-2.7" vector-effect="non-scaling-stroke" fill="none" stroke="#f1f5f9"/>
          <circle cx="16.5" cy="16.5" r=".5" fill="#f1f5f9" vector-effect="non-scaling-stroke" stroke="#f1f5f9"/>
          <path d="m13.4 13.4 2.7 2.7" vector-effect="non-scaling-stroke" fill="none" stroke="#f1f5f9"/>
          <circle cx="12" cy="12" r="2" vector-effect="non-scaling-stroke" fill="none" stroke="#f1f5f9"/>
        </g>
      </g>
    </g>
    <!-- Connector -->
    <line id="ITEM_2_CONN" x1="1000" y1="425.0" x2="1250.0" y2="425.0" stroke="var(--accent-3)" stroke-width="2" stroke-dasharray="4 4" opacity="0.6" stroke-opacity="1.0"/>
    <circle cx="1250.0" cy="425.0" r="5" fill="var(--accent-2)"/>
    <!-- Rigid text block -->
    <!-- _FRAME guarantees text wraps neatly within text_w -->
    <rect id="ITEM_2_TEXT_BG" x="1252.0" y="334.0" width="636.0" height="207.0" rx="22" fill="var(--panel)" fill-opacity="0.94" stroke="var(--primary-text)" stroke-opacity="0.12" stroke-width="1.5"/>
    <rect x="1252.0" y="334.0" width="636.0" height="207.0" rx="16" fill="url(#svg19066fe7-universal-surface-sheen)" opacity="0.76"/>
    <rect id="ITEM_2_HEAD_FRAME" x="1270.0" y="350.0" width="600" height="45" fill="none"/>
    <text id="ITEM_2_HEAD" data-bg-id="ITEM_2_TEXT_BG" x="1270.0" y="350.0" font-weight="bold" font-size="28" fill="var(--accent-3)" text-anchor="start" fill-opacity="1.0" stroke="none" style="font-size: 30px; font-family: Inter, Segoe UI, Kalam, Roboto, Helvetica, Arial, sans-serif; font-weight: 700; letter-spacing:-0.4px;" data-final-font-size="30">
      <tspan x="1270.0" dy="30.75px">Monetary Independence</tspan>
    </text>
    <rect id="ITEM_2_BODY_FRAME" x="1270.0" y="440.0" width="600" height="85" fill="none"/>
    <text id="ITEM_2_BODY" data-bg-id="ITEM_2_TEXT_BG" x="1270.0" y="440.0" font-size="20" fill="var(--primary-text)" text-anchor="start" style="font-size: 26px; font-family: Inter, Segoe UI, Kalam, Roboto, Helvetica, Arial, sans-serif; font-weight: 400;" data-final-font-size="26">
      <tspan x="1270.0" dy="25.84px">The nation introduces the Guinean franc</tspan>
      <tspan x="1270.0" dy="29.90px">to control economic policy</tspan>
    </text>
    <circle cx="960" cy="600.0" r="64" fill="url(#svg19066fe7-universal-icon-aura)" opacity="0.82"/>
    <g transform="translate(960, 600.0)">
      <circle id="ITEM_3_STROKE" cx="0" cy="0" r="37" fill="transparent" stroke="var(--accent-4)" stroke-width="3" stroke-opacity="1.0"/>
      <circle id="ITEM_3_BORDER" cx="0" cy="0" r="45" fill="transparent" stroke="var(--accent-4)" stroke-width="3" stroke-dasharray="6 4" stroke-opacity="1.0"/>
      <circle id="ITEM_3_PAD" cx="0.00" cy="0.00" r="40.00" fill="var(--icon-pad-bg)" stroke="var(--primary-text)" stroke-width="2" opacity="0.9"/>
      <circle id="ITEM_3_PAD_INNER" cx="0.00" cy="0.00" r="31.20" fill="var(--accent-4)" fill-opacity="0.22"/>
      <g id="ITEM_3_ICON" transform="translate(-25, -25)" data-icon-size="50" stroke-dasharray="6 4">
        <g transform="translate(-11.722123893805314,-10.065486725663725) scale(2.2088495575221243)">
          <path d="M16.25 29.25C16.25 29.6642 15.9143 30 15.5 30C15.0858 30 14.75 29.6642 14.75 29.25V18.2847L6.35413 29.6945C6.10863 30.0281 5.63916 30.0996 5.30554 29.8541C4.97192 29.6086 4.90047 29.1391 5.14597 28.8055L13.8421 16.9877C13.3669 16.9119 13 16.4964 13 16C13 15.4505 13.4497 15 13.9983 15H14.75V11.75C14.75 11.3358 15.0858 11 15.5 11C15.9143 11 16.25 11.3358 16.25 11.75V15H17.0018C17.5504 15 18 15.4505 18 16C18 16.421 17.7361 16.7839 17.366 16.9306L26.1041 28.8055C26.3496 29.1391 26.2782 29.6086 25.9446 29.8541C25.6109 30.0996 25.1415 30.0281 24.896 29.6945L16.25 17.9449V29.25Z" fill="#7167A4"/>
          <path d="M3.22683 4.27809C2.6088 5.92946 3.30622 7.78583 4.80973 8.60757L5.74923 8.95918L7.99999 8.00013L8.99999 4.00013L8.19939 2.40199L7.26328 2.05165C5.5897 1.68436 3.84485 2.62671 3.22683 4.27809Z" fill="#AEDDFF"/>
          <path d="M22.8343 8.94678L27.5555 10.7137L29 13.0001L28 15.0001L25.7687 15.3837L21.0817 13.6296L20 10.5001L22.8343 8.94678Z" fill="#D3D3D3"/>
          <path d="M8.59557 3.94216L11.9373 3.80078L23.1846 8.01009L20.731 14.566L9.48157 10.3559L7.48633 7.72365L8.59557 3.94216Z" fill="#BEBEBE"/>
          <path d="M11.9459 3.80389L8.19965 2.40186L5.74609 8.95777L9.49233 10.3598L11.9459 3.80389Z" fill="#5235A6"/>
          <path d="M29.39 11.4001L27.5169 10.6991L25.7644 15.3819L27.6375 16.0829C28.1547 16.2765 28.731 16.0141 28.9246 15.4969L29.9761 12.6872C30.1697 12.1699 29.9073 11.5937 29.39 11.4001Z" fill="#5235A6"/>
        </g>
      </g>
    </g>
    <!-- Connector -->
    <line id="ITEM_3_CONN" x1="920" y1="600.0" x2="670.0" y2="600.0" stroke="var(--accent-4)" stroke-width="2" stroke-dasharray="4 4" opacity="0.6" stroke-opacity="1.0"/>
    <circle cx="670.0" cy="600.0" r="5" fill="var(--accent-3)"/>
    <!-- Rigid text block -->
    <!-- _FRAME guarantees text wraps neatly within text_w -->
    <rect id="ITEM_3_TEXT_BG" x="32.0" y="509.0" width="636.0" height="207.0" rx="22" fill="var(--panel)" fill-opacity="0.94" stroke="var(--primary-text)" stroke-opacity="0.12" stroke-width="1.5"/>
    <rect x="32.0" y="509.0" width="636.0" height="207.0" rx="16" fill="url(#svg19066fe7-universal-surface-sheen)" opacity="0.76"/>
    <rect id="ITEM_3_HEAD_FRAME" x="50.0" y="525.0" width="600" height="45" fill="none"/>
    <text id="ITEM_3_HEAD" data-bg-id="ITEM_3_TEXT_BG" x="650.0" y="525.0" font-weight="bold" font-size="28" fill="var(--accent-4)" text-anchor="end" fill-opacity="1.0" stroke="none" style="font-size: 30px; font-family: Inter, Segoe UI, Kalam, Roboto, Helvetica, Arial, sans-serif; font-weight: 700; letter-spacing:-0.4px;" data-final-font-size="30">
      <tspan x="650.0" dy="30.75px">French Influence</tspan>
    </text>
    <rect id="ITEM_3_BODY_FRAME" x="50.0" y="615.0" width="600" height="85" fill="none"/>
    <text id="ITEM_3_BODY" data-bg-id="ITEM_3_TEXT_BG" x="650.0" y="615.0" font-size="20" fill="var(--primary-text)" text-anchor="end" style="font-size: 26px; font-family: Inter, Segoe UI, Kalam, Roboto, Helvetica, Arial, sans-serif; font-weight: 400;" data-final-font-size="26">
      <tspan x="650.0" dy="25.84px">France views the move as a threat to regional</tspan>
      <tspan x="650.0" dy="29.90px">monetary control</tspan>
    </text>
    <circle cx="960" cy="775.0" r="64" fill="url(#svg19066fe7-universal-icon-aura)" opacity="0.82"/>
    <g transform="translate(960, 775.0)">
      <circle id="ITEM_4_STROKE" cx="0" cy="0" r="37" fill="transparent" stroke="var(--accent-5)" stroke-width="3" stroke-opacity="1.0"/>
      <circle id="ITEM_4_BORDER" cx="0" cy="0" r="45" fill="transparent" stroke="var(--accent-5)" stroke-width="3" stroke-dasharray="6 4" stroke-opacity="1.0"/>
      <circle id="ITEM_4_PAD" cx="0.00" cy="0.00" r="40.00" fill="var(--icon-pad-bg)" stroke="var(--primary-text)" stroke-width="2" opacity="0.9"/>
      <circle id="ITEM_4_PAD_INNER" cx="0.00" cy="0.00" r="31.20" fill="var(--accent-5)" fill-opacity="0.22"/>
      <g id="ITEM_4_ICON" transform="translate(-25, -25)" data-icon-size="50" stroke-dasharray="6 4">
        <g transform="translate(-10.65714285714286,-10.657142857142857) scale(0.2785714285714286)" vector-effect="non-scaling-stroke" stroke-width="2.31" stroke-linecap="round" stroke-linejoin="round" stroke-opacity="1.0">
          <line x1="64" y1="56" x2="64" y2="200" fill="none" stroke="#f1f5f9" vector-effect="non-scaling-stroke"/>
          <line x1="192" y1="56" x2="192" y2="200" fill="none" stroke="#f1f5f9" vector-effect="non-scaling-stroke"/>
          <path d="M24,115.35A64,64,0,0,0,64,56a64,64,0,0,0,128,0,64,64,0,0,0,40,59.35" fill="none" stroke="#f1f5f9" vector-effect="non-scaling-stroke"/>
          <line x1="152" y1="115.35" x2="152" y2="168" fill="none" stroke="#f1f5f9" vector-effect="non-scaling-stroke"/>
          <line x1="104" y1="115.35" x2="104" y2="168" fill="none" stroke="#f1f5f9" vector-effect="non-scaling-stroke"/>
          <line x1="24" y1="168" x2="232" y2="168" fill="none" stroke="#f1f5f9" vector-effect="non-scaling-stroke"/>
        </g>
      </g>
    </g>
    <!-- Connector -->
    <line id="ITEM_4_CONN" x1="1000" y1="775.0" x2="1250.0" y2="775.0" stroke="var(--accent-5)" stroke-width="2" stroke-dasharray="4 4" opacity="0.6" stroke-opacity="1.0"/>
    <circle cx="1250.0" cy="775.0" r="5" fill="var(--accent-4)"/>
    <!-- Rigid text block -->
    <!-- _FRAME guarantees text wraps neatly within text_w -->
    <rect id="ITEM_4_TEXT_BG" x="1252.0" y="684.0" width="636.0" height="207.0" rx="22" fill="var(--panel)" fill-opacity="0.94" stroke="var(--primary-text)" stroke-opacity="0.12" stroke-width="1.5"/>
    <rect x="1252.0" y="684.0" width="636.0" height="207.0" rx="16" fill="url(#svg19066fe7-universal-surface-sheen)" opacity="0.76"/>
    <rect id="ITEM_4_HEAD_FRAME" x="1270.0" y="700.0" width="600" height="45" fill="none"/>
    <text id="ITEM_4_HEAD" data-bg-id="ITEM_4_TEXT_BG" x="1270.0" y="700.0" font-weight="bold" font-size="28" fill="var(--accent-5)" text-anchor="start" fill-opacity="1.0" stroke="none" style="font-size: 30px; font-family: Inter, Segoe UI, Kalam, Roboto, Helvetica, Arial, sans-serif; font-weight: 700; letter-spacing:-0.4px;" data-final-font-size="30">
      <tspan x="1270.0" dy="30.75px">Françafrique Network</tspan>
    </text>
    <rect id="ITEM_4_BODY_FRAME" x="1270.0" y="790.0" width="600" height="85" fill="none"/>
    <text id="ITEM_4_BODY" data-bg-id="ITEM_4_TEXT_BG" x="1270.0" y="790.0" font-size="20" fill="var(--primary-text)" text-anchor="start" style="font-size: 26px; font-family: Inter, Segoe UI, Kalam, Roboto, Helvetica, Arial, sans-serif; font-weight: 400;" data-final-font-size="26">
      <tspan x="1270.0" dy="25.84px">Deep political and military ties link France</tspan>
      <tspan x="1270.0" dy="29.90px">to former colonies</tspan>
    </text>
    <circle cx="960" cy="900.0" r="64" fill="url(#svg19066fe7-universal-icon-aura)" opacity="0.82"/>
    <g transform="translate(960, 900.0)">
      <circle id="ITEM_5_STROKE" cx="0" cy="0" r="37" fill="transparent" stroke="var(--accent-6)" stroke-width="3" stroke-opacity="1.0"/>
      <circle id="ITEM_5_BORDER" cx="0" cy="0" r="45" fill="transparent" stroke="var(--accent-6)" stroke-width="3" stroke-dasharray="6 4" stroke-opacity="1.0"/>
      <circle id="ITEM_5_PAD" cx="0.00" cy="0.00" r="40.00" fill="var(--icon-pad-bg)" stroke="var(--primary-text)" stroke-width="2" opacity="0.9"/>
      <circle id="ITEM_5_PAD_INNER" cx="0.00" cy="0.00" r="31.20" fill="var(--accent-6)" fill-opacity="0.22"/>
      <g id="ITEM_5_ICON" transform="translate(-25, -25)" data-icon-size="50" stroke-dasharray="6 4">
        <g transform="translate(-10.617699115044255,-11.998230088495582) scale(2.2088495575221243)">
          <path d="M5 27.99C5 28.75 5.61 29.36 6.37 29.36C7.13 29.36 7.74 28.75 7.74 27.99V26.62H5V27.99ZM24.15 27.99C24.15 28.75 24.76 29.36 25.52 29.36C26.27 29.36 26.89 28.75 26.89 27.99V26.62H24.15V27.99Z" fill="#212121"/>
          <path d="M27 5C27 5.55228 26.5523 6 26 6C25.7251 6 25.4761 5.88908 25.2954 5.70956L7.9667 9.12058L7.77356 8.1394L25.0336 4.74189C25.1474 4.3147 25.537 4 26 4C26.5523 4 27 4.44772 27 5Z" fill="#9B9B9B"/>
          <path d="M6.84005 11.85C7.96671 11.85 8.88005 10.9367 8.88005 9.81002C8.88005 8.68336 7.96671 7.77002 6.84005 7.77002C5.71338 7.77002 4.80005 8.68336 4.80005 9.81002C4.80005 10.9367 5.71338 11.85 6.84005 11.85Z" fill="#D3D3D3"/>
          <path d="M27.38 9.81006H4.63C3.18 9.81006 2 10.9901 2 12.4401V24.6901C2 26.1401 3.18 27.3201 4.63 27.3201H27.38C28.83 27.3201 30.01 26.1401 30.01 24.6901V12.4301C30 10.9801 28.83 9.81006 27.38 9.81006Z" fill="#9B9B9B"/>
          <path d="M26.32 12.76H18.45C17.79 12.76 17.25 13.3 17.25 13.96V18.79C17.25 19.45 17.79 19.99 18.45 19.99H26.32C26.98 19.99 27.52 19.45 27.52 18.79V13.96C27.52 13.3 26.98 12.76 26.32 12.76Z" fill="#83CBFF"/>
          <path d="M19.88 15.83C19.44 15.83 19.09 16.19 19.09 16.62V19.98H20.68V16.62C20.67 16.19 20.32 15.83 19.88 15.83Z" fill="#F8312F"/>
          <path d="M14.83 14.12C15.2 14.12 15.51 13.82 15.51 13.44C15.51 13.07 15.21 12.76 14.83 12.76H5.18C4.81 12.76 4.5 13.06 4.5 13.44C4.5 13.81 4.8 14.12 5.18 14.12H14.83ZM15.51 15.96C15.51 16.34 15.2 16.64 14.83 16.64H5.18C4.8 16.64 4.5 16.33 4.5 15.96C4.5 15.58 4.81 15.28 5.18 15.28H14.83C15.21 15.27 15.51 15.58 15.51 15.96ZM14.83 19.15C15.2 19.15 15.51 18.85 15.51 18.47C15.51 18.1 15.21 17.79 14.83 17.79H5.18C4.81 17.79 4.5 18.09 4.5 18.47C4.5 18.84 4.8 19.15 5.18 19.15H14.83ZM15.51 20.9901C15.51 21.3701 15.2 21.6701 14.83 21.6701H5.18C4.8 21.6701 4.5 21.3601 4.5 20.9901C4.5 20.6101 4.81 20.3101 5.18 20.3101H14.83C15.21 20.3 15.51 20.6101 15.51 20.9901ZM15.51 23.5001C15.51 23.8801 15.2 24.1801 14.83 24.1801H5.18C4.8 24.1801 4.5 23.8701 4.5 23.5001C4.5 23.1201 4.81 22.8201 5.18 22.8201H14.83C15.21 22.8201 15.51 23.1301 15.51 23.5001Z" fill="#212121"/>
          <path d="M21.04 22.9199C21.04 23.6103 20.4804 24.1699 19.79 24.1699C19.0997 24.1699 18.54 23.6103 18.54 22.9199C18.54 22.2296 19.0997 21.6699 19.79 21.6699C20.4804 21.6699 21.04 22.2296 21.04 22.9199ZM26.6201 22.9199C26.6201 23.6103 26.0605 24.1699 25.3701 24.1699C24.6798 24.1699 24.1201 23.6103 24.1201 22.9199C24.1201 22.2296 24.6798 21.6699 25.3701 21.6699C26.0605 21.6699 26.6201 22.2296 26.6201 22.9199Z" fill="#F4F4F4"/>
        </g>
      </g>
    </g>
    <!-- Connector -->
    <line id="ITEM_5_CONN" x1="920" y1="900.0" x2="670.0" y2="900.0" stroke="var(--accent-6)" stroke-width="2" stroke-dasharray="4 4" opacity="0.6" stroke-opacity="1.0"/>
    <circle cx="670.0" cy="900.0" r="5" fill="var(--accent-5)"/>
    <!-- Rigid text block -->
    <!-- _FRAME guarantees text wraps neatly within text_w -->
    <rect id="ITEM_5_TEXT_BG" x="32.0" y="809.0" width="636.0" height="207.0" rx="22" fill="var(--panel)" fill-opacity="0.94" stroke="var(--primary-text)" stroke-opacity="0.12" stroke-width="1.5"/>
    <rect x="32.0" y="809.0" width="636.0" height="207.0" rx="16" fill="url(#svg19066fe7-universal-surface-sheen)" opacity="0.76"/>
    <rect id="ITEM_5_HEAD_FRAME" x="50.0" y="825.0" width="600" height="45" fill="none"/>
    <text id="ITEM_5_HEAD" data-bg-id="ITEM_5_TEXT_BG" x="650.0" y="825.0" font-weight="bold" font-size="28" fill="var(--accent-6)" text-anchor="end" fill-opacity="1.0" stroke="none" style="font-size: 30px; font-family: Inter, Segoe UI, Kalam, Roboto, Helvetica, Arial, sans-serif; font-weight: 700; letter-spacing:-0.4px;" data-final-font-size="30">
      <tspan x="650.0" dy="30.75px">Covert Intervention</tspan>
    </text>
    <rect id="ITEM_5_BODY_FRAME" x="50.0" y="915.0" width="600" height="85" fill="none"/>
    <text id="ITEM_5_BODY" data-bg-id="ITEM_5_TEXT_BG" x="650.0" y="915.0" font-size="20" fill="var(--primary-text)" text-anchor="end" style="font-size: 26px; font-family: Inter, Segoe UI, Kalam, Roboto, Helvetica, Arial, sans-serif; font-weight: 400;" data-final-font-size="26">
      <tspan x="650.0" dy="25.84px">Intelligence services deploy sabotage</tspan>
      <tspan x="650.0" dy="29.90px">to maintain colonial-era influence</tspan>
    </text>
  </g>
</svg>
